%TF.GenerationSoftware,KiCad,Pcbnew,(6.0.9)*%
%TF.CreationDate,2022-12-15T21:37:47+02:00*%
%TF.ProjectId,custom_arduino,63757374-6f6d-45f6-9172-6475696e6f2e,rev?*%
%TF.SameCoordinates,Original*%
%TF.FileFunction,Copper,L2,Bot*%
%TF.FilePolarity,Positive*%
%FSLAX46Y46*%
G04 Gerber Fmt 4.6, Leading zero omitted, Abs format (unit mm)*
G04 Created by KiCad (PCBNEW (6.0.9)) date 2022-12-15 21:37:47*
%MOMM*%
%LPD*%
G01*
G04 APERTURE LIST*
%TA.AperFunction,NonConductor*%
%ADD10C,0.200000*%
%TD*%
%TA.AperFunction,ComponentPad*%
%ADD11R,1.600000X1.600000*%
%TD*%
%TA.AperFunction,ComponentPad*%
%ADD12O,1.600000X1.600000*%
%TD*%
%TA.AperFunction,ComponentPad*%
%ADD13R,1.700000X1.700000*%
%TD*%
%TA.AperFunction,ComponentPad*%
%ADD14O,1.700000X1.700000*%
%TD*%
%TA.AperFunction,ComponentPad*%
%ADD15C,1.400000*%
%TD*%
%TA.AperFunction,ComponentPad*%
%ADD16O,1.400000X1.400000*%
%TD*%
%TA.AperFunction,ComponentPad*%
%ADD17C,1.600000*%
%TD*%
%TA.AperFunction,ComponentPad*%
%ADD18R,2.000000X1.905000*%
%TD*%
%TA.AperFunction,ComponentPad*%
%ADD19O,2.000000X1.905000*%
%TD*%
%TA.AperFunction,ComponentPad*%
%ADD20R,2.999740X2.999740*%
%TD*%
%TA.AperFunction,ComponentPad*%
%ADD21C,2.999740*%
%TD*%
%TA.AperFunction,ComponentPad*%
%ADD22R,4.500000X2.500000*%
%TD*%
%TA.AperFunction,ComponentPad*%
%ADD23O,4.500000X2.500000*%
%TD*%
%TA.AperFunction,ComponentPad*%
%ADD24R,2.200000X2.200000*%
%TD*%
%TA.AperFunction,ComponentPad*%
%ADD25O,2.200000X2.200000*%
%TD*%
%TA.AperFunction,ComponentPad*%
%ADD26C,2.400000*%
%TD*%
%TA.AperFunction,ComponentPad*%
%ADD27O,2.400000X2.400000*%
%TD*%
%TA.AperFunction,ViaPad*%
%ADD28C,2.500000*%
%TD*%
%TA.AperFunction,Conductor*%
%ADD29C,0.500000*%
%TD*%
%TA.AperFunction,Conductor*%
%ADD30C,1.500000*%
%TD*%
%TA.AperFunction,Conductor*%
%ADD31C,2.000000*%
%TD*%
%TA.AperFunction,Conductor*%
%ADD32C,1.000000*%
%TD*%
G04 APERTURE END LIST*
D10*
G36*
X55300000Y-75400000D02*
G01*
X50200000Y-80000000D01*
X48400000Y-80700000D01*
X41600000Y-80600000D01*
X41500000Y-79500000D01*
X44700000Y-78800000D01*
X47700000Y-76200000D01*
X54800000Y-73700000D01*
X55300000Y-75400000D01*
G37*
X55300000Y-75400000D02*
X50200000Y-80000000D01*
X48400000Y-80700000D01*
X41600000Y-80600000D01*
X41500000Y-79500000D01*
X44700000Y-78800000D01*
X47700000Y-76200000D01*
X54800000Y-73700000D01*
X55300000Y-75400000D01*
G36*
X69850000Y-50800000D02*
G01*
X64770000Y-54610000D01*
X63500000Y-59690000D01*
X63500000Y-62230000D01*
X64770000Y-64135000D01*
X66675000Y-66040000D01*
X65405000Y-68580000D01*
X63500000Y-78105000D01*
X62230000Y-78740000D01*
X60325000Y-76200000D01*
X54610000Y-74295000D01*
X61595000Y-59690000D01*
X59690000Y-57785000D01*
X59690000Y-56515000D01*
X66675000Y-49530000D01*
X69850000Y-50800000D01*
G37*
X69850000Y-50800000D02*
X64770000Y-54610000D01*
X63500000Y-59690000D01*
X63500000Y-62230000D01*
X64770000Y-64135000D01*
X66675000Y-66040000D01*
X65405000Y-68580000D01*
X63500000Y-78105000D01*
X62230000Y-78740000D01*
X60325000Y-76200000D01*
X54610000Y-74295000D01*
X61595000Y-59690000D01*
X59690000Y-57785000D01*
X59690000Y-56515000D01*
X66675000Y-49530000D01*
X69850000Y-50800000D01*
G36*
X105400000Y-71600000D02*
G01*
X102900000Y-73400000D01*
X103000000Y-50000000D01*
X104900000Y-46300000D01*
X105400000Y-46300000D01*
X105400000Y-71600000D01*
G37*
X105400000Y-71600000D02*
X102900000Y-73400000D01*
X103000000Y-50000000D01*
X104900000Y-46300000D01*
X105400000Y-46300000D01*
X105400000Y-71600000D01*
G36*
X42400000Y-64200000D02*
G01*
X42800000Y-64900000D01*
X42700000Y-65700000D01*
X42100000Y-66800000D01*
X38700000Y-66200000D01*
X34900000Y-61600000D01*
X36300000Y-61300000D01*
X42400000Y-64200000D01*
G37*
X42400000Y-64200000D02*
X42800000Y-64900000D01*
X42700000Y-65700000D01*
X42100000Y-66800000D01*
X38700000Y-66200000D01*
X34900000Y-61600000D01*
X36300000Y-61300000D01*
X42400000Y-64200000D01*
G36*
X59400000Y-57500000D02*
G01*
X56300000Y-58400000D01*
X48100000Y-55900000D01*
X46700000Y-54900000D01*
X48300000Y-54100000D01*
X56900000Y-52100000D01*
X61936441Y-52340594D01*
X64400000Y-51500000D01*
X59400000Y-57500000D01*
G37*
X59400000Y-57500000D02*
X56300000Y-58400000D01*
X48100000Y-55900000D01*
X46700000Y-54900000D01*
X48300000Y-54100000D01*
X56900000Y-52100000D01*
X61936441Y-52340594D01*
X64400000Y-51500000D01*
X59400000Y-57500000D01*
G36*
X99100000Y-59400000D02*
G01*
X98500000Y-60200000D01*
X95700000Y-59500000D01*
X94600000Y-58000000D01*
X95300000Y-55700000D01*
X99100000Y-59400000D01*
G37*
X99100000Y-59400000D02*
X98500000Y-60200000D01*
X95700000Y-59500000D01*
X94600000Y-58000000D01*
X95300000Y-55700000D01*
X99100000Y-59400000D01*
G36*
X60325000Y-60325000D02*
G01*
X53975000Y-67945000D01*
X46990000Y-68580000D01*
X41910000Y-73025000D01*
X36195000Y-73660000D01*
X38735000Y-69850000D01*
X45085000Y-66040000D01*
X58681006Y-59055000D01*
X59690000Y-59055000D01*
X60325000Y-60325000D01*
G37*
X60325000Y-60325000D02*
X53975000Y-67945000D01*
X46990000Y-68580000D01*
X41910000Y-73025000D01*
X36195000Y-73660000D01*
X38735000Y-69850000D01*
X45085000Y-66040000D01*
X58681006Y-59055000D01*
X59690000Y-59055000D01*
X60325000Y-60325000D01*
G36*
X80500000Y-67500000D02*
G01*
X80500000Y-68000000D01*
X80000000Y-69000000D01*
X79000000Y-69000000D01*
X78000000Y-67500000D01*
X76500000Y-67000000D01*
X78740000Y-66040000D01*
X80500000Y-67500000D01*
G37*
X80500000Y-67500000D02*
X80500000Y-68000000D01*
X80000000Y-69000000D01*
X79000000Y-69000000D01*
X78000000Y-67500000D01*
X76500000Y-67000000D01*
X78740000Y-66040000D01*
X80500000Y-67500000D01*
G36*
X98700000Y-49400000D02*
G01*
X102300000Y-52800000D01*
X102300000Y-53800000D01*
X101700000Y-54400000D01*
X100300000Y-54300000D01*
X99600000Y-53300000D01*
X97900000Y-52800000D01*
X94800000Y-53000000D01*
X91500000Y-49300000D01*
X98700000Y-49400000D01*
G37*
X98700000Y-49400000D02*
X102300000Y-52800000D01*
X102300000Y-53800000D01*
X101700000Y-54400000D01*
X100300000Y-54300000D01*
X99600000Y-53300000D01*
X97900000Y-52800000D01*
X94800000Y-53000000D01*
X91500000Y-49300000D01*
X98700000Y-49400000D01*
G36*
X72500000Y-66040000D02*
G01*
X73000000Y-67000000D01*
X71500000Y-69000000D01*
X69000000Y-67000000D01*
X66000000Y-67000000D01*
X66000000Y-66000000D01*
X72500000Y-66040000D01*
G37*
X72500000Y-66040000D02*
X73000000Y-67000000D01*
X71500000Y-69000000D01*
X69000000Y-67000000D01*
X66000000Y-67000000D01*
X66000000Y-66000000D01*
X72500000Y-66040000D01*
G36*
X78900000Y-65900000D02*
G01*
X79900000Y-67000000D01*
X69900000Y-67200000D01*
X65500000Y-65500000D01*
X78900000Y-65900000D01*
G37*
X78900000Y-65900000D02*
X79900000Y-67000000D01*
X69900000Y-67200000D01*
X65500000Y-65500000D01*
X78900000Y-65900000D01*
G36*
X37900000Y-62300000D02*
G01*
X35500000Y-61300000D01*
X36100000Y-56900000D01*
X37900000Y-62300000D01*
G37*
X37900000Y-62300000D02*
X35500000Y-61300000D01*
X36100000Y-56900000D01*
X37900000Y-62300000D01*
G36*
X100400000Y-67800000D02*
G01*
X99800000Y-68700000D01*
X97600000Y-67200000D01*
X95400000Y-66100000D01*
X94500000Y-64700000D01*
X95300000Y-63500000D01*
X100400000Y-67800000D01*
G37*
X100400000Y-67800000D02*
X99800000Y-68700000D01*
X97600000Y-67200000D01*
X95400000Y-66100000D01*
X94500000Y-64700000D01*
X95300000Y-63500000D01*
X100400000Y-67800000D01*
G36*
X105400000Y-46300000D02*
G01*
X103561890Y-52213686D01*
X99143399Y-48148401D01*
X63963142Y-48413313D01*
X60163142Y-51413313D01*
X57900000Y-49700000D01*
X53300000Y-49600000D01*
X47400000Y-43200000D01*
X101800000Y-43100000D01*
X105400000Y-46300000D01*
G37*
X105400000Y-46300000D02*
X103561890Y-52213686D01*
X99143399Y-48148401D01*
X63963142Y-48413313D01*
X60163142Y-51413313D01*
X57900000Y-49700000D01*
X53300000Y-49600000D01*
X47400000Y-43200000D01*
X101800000Y-43100000D01*
X105400000Y-46300000D01*
D11*
%TO.P,U5,1,~{RESET}/PB5*%
%TO.N,/IC1*%
X101800000Y-107400000D03*
D12*
%TO.P,U5,2,XTAL1/PB3*%
%TO.N,unconnected-(U5-Pad2)*%
X101800000Y-104860000D03*
%TO.P,U5,3,XTAL2/PB4*%
%TO.N,unconnected-(U5-Pad3)*%
X101800000Y-102320000D03*
%TO.P,U5,4,GND*%
%TO.N,GND1*%
X101800000Y-99780000D03*
%TO.P,U5,5,AREF/PB0*%
%TO.N,/IC5*%
X94180000Y-99780000D03*
%TO.P,U5,6,PB1*%
%TO.N,/IC6*%
X94180000Y-102320000D03*
%TO.P,U5,7,PB2*%
%TO.N,/IC7*%
X94180000Y-104860000D03*
%TO.P,U5,8,VCC*%
%TO.N,/POWER*%
X94180000Y-107400000D03*
%TD*%
D11*
%TO.P,U4,1,TX*%
%TO.N,unconnected-(U4-Pad1)*%
X75150000Y-96080000D03*
D12*
%TO.P,U4,17,3V3*%
%TO.N,unconnected-(U4-Pad17)*%
X42130000Y-111320000D03*
%TO.P,U4,2,RX*%
%TO.N,unconnected-(U4-Pad2)*%
X72610000Y-96080000D03*
%TO.P,U4,18,AREF*%
%TO.N,unconnected-(U4-Pad18)*%
X44670000Y-111320000D03*
%TO.P,U4,3,~{RESET}*%
%TO.N,Net-(C7-Pad1)*%
X70070000Y-96080000D03*
%TO.P,U4,19,A0/D14*%
%TO.N,unconnected-(U4-Pad19)*%
X47210000Y-111320000D03*
%TO.P,U4,4,GND*%
%TO.N,GND1*%
X67530000Y-96080000D03*
%TO.P,U4,20,A1/D15*%
%TO.N,unconnected-(U4-Pad20)*%
X49750000Y-111320000D03*
%TO.P,U4,5,D2*%
%TO.N,unconnected-(U4-Pad5)*%
X64990000Y-96080000D03*
%TO.P,U4,21,A2/D16*%
%TO.N,unconnected-(U4-Pad21)*%
X52290000Y-111320000D03*
%TO.P,U4,6,~D3*%
%TO.N,unconnected-(U4-Pad6)*%
X62450000Y-96080000D03*
%TO.P,U4,22,A3/D17*%
%TO.N,unconnected-(U4-Pad22)*%
X54830000Y-111320000D03*
%TO.P,U4,7,D4*%
%TO.N,unconnected-(U4-Pad7)*%
X59910000Y-96080000D03*
%TO.P,U4,23,A4/D18*%
%TO.N,unconnected-(U4-Pad23)*%
X57370000Y-111320000D03*
%TO.P,U4,8,~D5*%
%TO.N,unconnected-(U4-Pad8)*%
X57370000Y-96080000D03*
%TO.P,U4,24,A5/D19*%
%TO.N,unconnected-(U4-Pad24)*%
X59910000Y-111320000D03*
%TO.P,U4,9,~D6*%
%TO.N,unconnected-(U4-Pad9)*%
X54830000Y-96080000D03*
%TO.P,U4,25,A6/D20*%
%TO.N,unconnected-(U4-Pad25)*%
X62450000Y-111320000D03*
%TO.P,U4,10,D7*%
%TO.N,unconnected-(U4-Pad10)*%
X52290000Y-96080000D03*
%TO.P,U4,26,A7/D21*%
%TO.N,unconnected-(U4-Pad26)*%
X64990000Y-111320000D03*
%TO.P,U4,11,D8*%
%TO.N,unconnected-(U4-Pad11)*%
X49750000Y-96080000D03*
%TO.P,U4,27,+5V*%
%TO.N,/POWER*%
X67530000Y-111320000D03*
%TO.P,U4,12,~D9*%
%TO.N,unconnected-(U4-Pad12)*%
X47210000Y-96080000D03*
%TO.P,U4,28,~{RESET}*%
%TO.N,unconnected-(U4-Pad28)*%
X70070000Y-111320000D03*
%TO.P,U4,13,~D10*%
%TO.N,/IC1*%
X44670000Y-96080000D03*
%TO.P,U4,29,GND*%
%TO.N,GND1*%
X72610000Y-111320000D03*
%TO.P,U4,14,D11*%
%TO.N,/IC5*%
X42130000Y-96080000D03*
%TO.P,U4,30,VIN*%
%TO.N,unconnected-(U4-Pad30)*%
X75150000Y-111320000D03*
%TO.P,U4,15,D12*%
%TO.N,/IC6*%
X39590000Y-96080000D03*
%TO.P,U4,16,D13*%
%TO.N,/IC7*%
X39590000Y-111320000D03*
%TD*%
D13*
%TO.P,J1,1,Pin_1*%
%TO.N,/5V5A*%
X100965000Y-73650000D03*
D14*
%TO.P,J1,2,Pin_2*%
%TO.N,Net-(J1-Pad2)*%
X100965000Y-71110000D03*
%TO.P,J1,3,Pin_3*%
%TO.N,GND*%
X100965000Y-68570000D03*
%TO.P,J1,4,Pin_4*%
%TO.N,/5V5A*%
X100965000Y-66030000D03*
%TO.P,J1,5,Pin_5*%
%TO.N,Net-(J1-Pad5)*%
X100965000Y-63490000D03*
%TO.P,J1,6,Pin_6*%
%TO.N,GND*%
X100965000Y-60950000D03*
%TO.P,J1,7,Pin_7*%
%TO.N,/5V5A*%
X100965000Y-58410000D03*
%TO.P,J1,8,Pin_8*%
%TO.N,Net-(J1-Pad8)*%
X100965000Y-55870000D03*
%TO.P,J1,9,Pin_9*%
%TO.N,GND*%
X100965000Y-53330000D03*
%TD*%
D15*
%TO.P,R1,1*%
%TO.N,/TSignalIN*%
X76835000Y-60960000D03*
D16*
%TO.P,R1,2*%
%TO.N,/TurnSignal_12V*%
X76835000Y-68580000D03*
%TD*%
D15*
%TO.P,R6,1*%
%TO.N,GND*%
X64770000Y-68580000D03*
D16*
%TO.P,R6,2*%
%TO.N,/RSignalIN*%
X64770000Y-60960000D03*
%TD*%
D11*
%TO.P,C2,1*%
%TO.N,/5V5A*%
X59690000Y-50800000D03*
D17*
%TO.P,C2,2*%
%TO.N,GND*%
X59690000Y-52800000D03*
%TD*%
D18*
%TO.P,U2,1,VI*%
%TO.N,/12V-IN*%
X41585000Y-82550000D03*
D19*
%TO.P,U2,2,GND*%
%TO.N,GND*%
X41585000Y-80010000D03*
%TO.P,U2,3,VO*%
%TO.N,/5V*%
X41585000Y-77470000D03*
%TD*%
D15*
%TO.P,R9,1*%
%TO.N,/SSignal*%
X89535000Y-62230000D03*
D16*
%TO.P,R9,2*%
%TO.N,Net-(J1-Pad5)*%
X97155000Y-62230000D03*
%TD*%
D15*
%TO.P,R8,1*%
%TO.N,/TSignal*%
X89535000Y-69850000D03*
D16*
%TO.P,R8,2*%
%TO.N,Net-(J1-Pad2)*%
X97155000Y-69850000D03*
%TD*%
D17*
%TO.P,C3,1*%
%TO.N,/12V-IN*%
X48895000Y-84415000D03*
%TO.P,C3,2*%
%TO.N,GND*%
X48895000Y-79415000D03*
%TD*%
D20*
%TO.P,J2,1,Pin_1*%
%TO.N,/12V-IN*%
X57150000Y-78105000D03*
D21*
%TO.P,J2,2,Pin_2*%
%TO.N,GND*%
X62230000Y-78105000D03*
%TO.P,J2,3,Pin_3*%
%TO.N,/RunSignal_12V*%
X67310000Y-78105000D03*
%TO.P,J2,4,Pin_4*%
%TO.N,/StopSignal_12V*%
X72390000Y-78105000D03*
%TO.P,J2,5,Pin_5*%
%TO.N,/TurnSignal_12V*%
X77470000Y-78105000D03*
%TD*%
D22*
%TO.P,Q1,1,B*%
%TO.N,Net-(C5-Pad1)*%
X40640000Y-60325000D03*
D23*
%TO.P,Q1,2,C*%
%TO.N,/5V5A*%
X40640000Y-65775000D03*
%TO.P,Q1,3,E*%
%TO.N,/12V-IN*%
X40640000Y-71225000D03*
%TD*%
D24*
%TO.P,D2,1,K*%
%TO.N,/SSignalIN*%
X74930000Y-57785000D03*
D25*
%TO.P,D2,2,A*%
%TO.N,GND*%
X74930000Y-50165000D03*
%TD*%
D24*
%TO.P,D1,1,K*%
%TO.N,/TSignalIN*%
X82550000Y-57785000D03*
D25*
%TO.P,D1,2,A*%
%TO.N,GND*%
X82550000Y-50165000D03*
%TD*%
D15*
%TO.P,R2,1*%
%TO.N,/SSignalIN*%
X73660000Y-60960000D03*
D16*
%TO.P,R2,2*%
%TO.N,/StopSignal_12V*%
X73660000Y-68580000D03*
%TD*%
D15*
%TO.P,R4,1*%
%TO.N,GND*%
X79375000Y-68580000D03*
D16*
%TO.P,R4,2*%
%TO.N,/TSignalIN*%
X79375000Y-60960000D03*
%TD*%
D11*
%TO.P,U1,1,~{RESET}/PB5*%
%TO.N,/RSignal*%
X93335000Y-82540000D03*
D12*
%TO.P,U1,2,XTAL1/PB3*%
%TO.N,/TSignal*%
X93335000Y-80000000D03*
%TO.P,U1,3,XTAL2/PB4*%
%TO.N,/SSignal*%
X93335000Y-77460000D03*
%TO.P,U1,4,GND*%
%TO.N,GND*%
X93335000Y-74920000D03*
%TO.P,U1,5,AREF/PB0*%
%TO.N,/TSignalIN*%
X85715000Y-74920000D03*
%TO.P,U1,6,PB1*%
%TO.N,/SSignalIN*%
X85715000Y-77460000D03*
%TO.P,U1,7,PB2*%
%TO.N,/RSignalIN*%
X85715000Y-80000000D03*
%TO.P,U1,8,VCC*%
%TO.N,/5V*%
X85715000Y-82540000D03*
%TD*%
D26*
%TO.P,R7,1*%
%TO.N,Net-(C5-Pad1)*%
X50165000Y-61595000D03*
D27*
%TO.P,R7,2*%
%TO.N,/12V-IN*%
X50165000Y-66675000D03*
%TD*%
D17*
%TO.P,C1,1*%
%TO.N,/5V*%
X48895000Y-71795000D03*
%TO.P,C1,2*%
%TO.N,GND*%
X48895000Y-76795000D03*
%TD*%
D18*
%TO.P,U3,1,VI*%
%TO.N,Net-(C5-Pad1)*%
X41275000Y-53975000D03*
D19*
%TO.P,U3,2,GND*%
%TO.N,GND*%
X41275000Y-51435000D03*
%TO.P,U3,3,VO*%
%TO.N,/5V5A*%
X41275000Y-48895000D03*
%TD*%
D15*
%TO.P,R5,1*%
%TO.N,GND*%
X71120000Y-68580000D03*
D16*
%TO.P,R5,2*%
%TO.N,/SSignalIN*%
X71120000Y-60960000D03*
%TD*%
D11*
%TO.P,C7,1*%
%TO.N,Net-(C7-Pad1)*%
X84900000Y-96805113D03*
D17*
%TO.P,C7,2*%
%TO.N,GND1*%
X84900000Y-94305113D03*
%TD*%
D15*
%TO.P,R10,1*%
%TO.N,/RSignal*%
X89535000Y-54610000D03*
D16*
%TO.P,R10,2*%
%TO.N,Net-(J1-Pad8)*%
X97155000Y-54610000D03*
%TD*%
D15*
%TO.P,R3,1*%
%TO.N,/RSignalIN*%
X67310000Y-60960000D03*
D16*
%TO.P,R3,2*%
%TO.N,/RunSignal_12V*%
X67310000Y-68580000D03*
%TD*%
D24*
%TO.P,D3,1,K*%
%TO.N,/RSignalIN*%
X67310000Y-57785000D03*
D25*
%TO.P,D3,2,A*%
%TO.N,GND*%
X67310000Y-50165000D03*
%TD*%
D11*
%TO.P,C6,1*%
%TO.N,/12V-IN*%
X59055000Y-59375113D03*
D17*
%TO.P,C6,2*%
%TO.N,GND*%
X59055000Y-57375113D03*
%TD*%
%TO.P,C5,1*%
%TO.N,Net-(C5-Pad1)*%
X48895000Y-49570000D03*
%TO.P,C5,2*%
%TO.N,GND*%
X48895000Y-54570000D03*
%TD*%
%TO.P,C4,1*%
%TO.N,/5V5A*%
X53340000Y-49570000D03*
%TO.P,C4,2*%
%TO.N,GND*%
X53340000Y-54570000D03*
%TD*%
D28*
%TO.N,/5V*%
X52705000Y-71755000D03*
X52705000Y-85090000D03*
%TD*%
D29*
%TO.N,Net-(C7-Pad1)*%
X83194887Y-96805113D02*
X84900000Y-96805113D01*
X81900000Y-98100000D02*
X83194887Y-96805113D01*
X72090000Y-98100000D02*
X81900000Y-98100000D01*
X70070000Y-96080000D02*
X72090000Y-98100000D01*
%TO.N,/IC1*%
X98800000Y-105400000D02*
X100800000Y-107400000D01*
X98800000Y-100100000D02*
X98800000Y-105400000D01*
X94900000Y-96200000D02*
X98800000Y-100100000D01*
X47790000Y-99200000D02*
X89700000Y-99200000D01*
X92700000Y-96200000D02*
X94900000Y-96200000D01*
X44670000Y-96080000D02*
X47790000Y-99200000D01*
X89700000Y-99200000D02*
X92700000Y-96200000D01*
X100800000Y-107400000D02*
X101800000Y-107400000D01*
%TO.N,/IC5*%
X93460000Y-100500000D02*
X94180000Y-99780000D01*
X46550000Y-100500000D02*
X93460000Y-100500000D01*
X42130000Y-96080000D02*
X46550000Y-100500000D01*
%TO.N,GND1*%
X102980000Y-99780000D02*
X101800000Y-99780000D01*
X104700000Y-101500000D02*
X102980000Y-99780000D01*
X104700000Y-108300000D02*
X104700000Y-101500000D01*
X75390000Y-114100000D02*
X98900000Y-114100000D01*
X98900000Y-114100000D02*
X104700000Y-108300000D01*
X72610000Y-111320000D02*
X75390000Y-114100000D01*
X96325113Y-94305113D02*
X101800000Y-99780000D01*
X84900000Y-94305113D02*
X96325113Y-94305113D01*
X70010000Y-93600000D02*
X84194887Y-93600000D01*
X84194887Y-93600000D02*
X84900000Y-94305113D01*
X67530000Y-96080000D02*
X70010000Y-93600000D01*
%TO.N,/POWER*%
X71450000Y-107400000D02*
X94180000Y-107400000D01*
X67530000Y-111320000D02*
X71450000Y-107400000D01*
%TO.N,/IC7*%
X46050000Y-104860000D02*
X94180000Y-104860000D01*
X39590000Y-111320000D02*
X46050000Y-104860000D01*
%TO.N,/IC6*%
X39590000Y-96080000D02*
X45830000Y-102320000D01*
X45830000Y-102320000D02*
X94180000Y-102320000D01*
D30*
%TO.N,/5V*%
X52665000Y-71795000D02*
X52705000Y-71755000D01*
D31*
X83165000Y-85090000D02*
X85715000Y-82540000D01*
X52705000Y-85090000D02*
X83165000Y-85090000D01*
D30*
X41585000Y-77470000D02*
X43220000Y-77470000D01*
X48895000Y-71795000D02*
X52665000Y-71795000D01*
X43220000Y-77470000D02*
X48895000Y-71795000D01*
D32*
%TO.N,GND*%
X46950000Y-54570000D02*
X43815000Y-51435000D01*
D30*
X59055000Y-74930000D02*
X62230000Y-78105000D01*
D32*
X43815000Y-51435000D02*
X41275000Y-51435000D01*
D30*
X94615000Y-53340000D02*
X94615000Y-58420000D01*
D32*
X64770000Y-67310000D02*
X64770000Y-68580000D01*
D30*
X52745000Y-76795000D02*
X54610000Y-74930000D01*
X48895000Y-76795000D02*
X52745000Y-76795000D01*
X95885000Y-59690000D02*
X94615000Y-60960000D01*
X95885000Y-52070000D02*
X99705000Y-52070000D01*
X59055000Y-74930000D02*
X59055000Y-74295000D01*
D32*
X59055000Y-57375113D02*
X62660057Y-53770057D01*
X79375000Y-67310000D02*
X78740000Y-66675000D01*
D30*
X99705000Y-52070000D02*
X100965000Y-53330000D01*
D32*
X66265113Y-50165000D02*
X67310000Y-50165000D01*
X62865000Y-59690000D02*
X62865000Y-62865000D01*
D30*
X100965000Y-68570000D02*
X99549163Y-68570000D01*
X99549163Y-68570000D02*
X97859163Y-66880000D01*
X100965000Y-60950000D02*
X99685000Y-60950000D01*
D32*
X79375000Y-68580000D02*
X79375000Y-67310000D01*
D30*
X94615000Y-65180000D02*
X96315000Y-66880000D01*
X98425000Y-59690000D02*
X95885000Y-59690000D01*
X54610000Y-74930000D02*
X59055000Y-74930000D01*
D31*
X67310000Y-50165000D02*
X74930000Y-50165000D01*
X82550000Y-50165000D02*
X91440000Y-50165000D01*
D30*
X94615000Y-72390000D02*
X93335000Y-73670000D01*
D32*
X48895000Y-54570000D02*
X46950000Y-54570000D01*
X59055000Y-57375113D02*
X56145113Y-57375113D01*
X73025000Y-66675000D02*
X71120000Y-68580000D01*
X61690000Y-52800000D02*
X62660057Y-53770057D01*
D30*
X94615000Y-53340000D02*
X95885000Y-52070000D01*
X99685000Y-60950000D02*
X98425000Y-59690000D01*
X93335000Y-73670000D02*
X93335000Y-74920000D01*
D32*
X68580000Y-66040000D02*
X66040000Y-66040000D01*
D30*
X97859163Y-66880000D02*
X96315000Y-66880000D01*
D32*
X71120000Y-68580000D02*
X68580000Y-66040000D01*
D31*
X91440000Y-50165000D02*
X94615000Y-53340000D01*
D30*
X94615000Y-68580000D02*
X94615000Y-72390000D01*
D32*
X59055000Y-57375113D02*
X60550113Y-57375113D01*
X60550113Y-57375113D02*
X62865000Y-59690000D01*
D30*
X59055000Y-74295000D02*
X64770000Y-68580000D01*
D32*
X78740000Y-66675000D02*
X73025000Y-66675000D01*
X56145113Y-57375113D02*
X53340000Y-54570000D01*
D30*
X96315000Y-66880000D02*
X94615000Y-68580000D01*
X48895000Y-79415000D02*
X48895000Y-76795000D01*
D32*
X59690000Y-52800000D02*
X61690000Y-52800000D01*
D31*
X74930000Y-50165000D02*
X82550000Y-50165000D01*
D30*
X48300000Y-80010000D02*
X48895000Y-79415000D01*
X41585000Y-80010000D02*
X48300000Y-80010000D01*
D32*
X62660057Y-53770057D02*
X66265113Y-50165000D01*
D30*
X94615000Y-60960000D02*
X94615000Y-65180000D01*
D32*
X66040000Y-66040000D02*
X64770000Y-67310000D01*
X62865000Y-62865000D02*
X66040000Y-66040000D01*
D30*
X94615000Y-58420000D02*
X95885000Y-59690000D01*
D32*
X53340000Y-54570000D02*
X48895000Y-54570000D01*
D30*
%TO.N,/5V5A*%
X41275000Y-48895000D02*
X44450000Y-48895000D01*
X39370000Y-43815000D02*
X35560000Y-47625000D01*
X104140000Y-50800000D02*
X104140000Y-56515000D01*
X104140000Y-56515000D02*
X102245000Y-58410000D01*
X104140000Y-71755000D02*
X104140000Y-67925000D01*
X35560000Y-47625000D02*
X35560000Y-61595000D01*
X59690000Y-50800000D02*
X62865000Y-47625000D01*
X53340000Y-49570000D02*
X47585000Y-43815000D01*
X44450000Y-48895000D02*
X47625000Y-52070000D01*
X47625000Y-52070000D02*
X49530000Y-52070000D01*
X49530000Y-52070000D02*
X52030000Y-49570000D01*
X39740000Y-65775000D02*
X40640000Y-65775000D01*
X104140000Y-64135000D02*
X104140000Y-60305000D01*
X35560000Y-61595000D02*
X39740000Y-65775000D01*
X53340000Y-49570000D02*
X58460000Y-49570000D01*
X104140000Y-67925000D02*
X102245000Y-66030000D01*
X100965000Y-73650000D02*
X102245000Y-73650000D01*
X58460000Y-49570000D02*
X59690000Y-50800000D01*
X102245000Y-66030000D02*
X104140000Y-64135000D01*
X104140000Y-60305000D02*
X102245000Y-58410000D01*
X102245000Y-73650000D02*
X104140000Y-71755000D01*
X100965000Y-47625000D02*
X104140000Y-50800000D01*
X62865000Y-47625000D02*
X100965000Y-47625000D01*
X52030000Y-49570000D02*
X53340000Y-49570000D01*
X100965000Y-66030000D02*
X102245000Y-66030000D01*
X102245000Y-58410000D02*
X100965000Y-58410000D01*
X47585000Y-43815000D02*
X39370000Y-43815000D01*
%TO.N,/12V-IN*%
X50165000Y-66675000D02*
X51755113Y-66675000D01*
X39085000Y-82550000D02*
X41585000Y-82550000D01*
X50165000Y-66675000D02*
X45190000Y-66675000D01*
X45190000Y-66675000D02*
X40640000Y-71225000D01*
X36830000Y-80295000D02*
X39085000Y-82550000D01*
X41585000Y-82550000D02*
X47030000Y-82550000D01*
D31*
X55205000Y-78105000D02*
X48895000Y-84415000D01*
X57150000Y-78105000D02*
X55205000Y-78105000D01*
D30*
X39265000Y-71225000D02*
X36830000Y-73660000D01*
X51755113Y-66675000D02*
X59055000Y-59375113D01*
X40640000Y-71225000D02*
X39265000Y-71225000D01*
X47030000Y-82550000D02*
X48895000Y-84415000D01*
X36830000Y-73660000D02*
X36830000Y-80295000D01*
%TO.N,Net-(C5-Pad1)*%
X41275000Y-53975000D02*
X41275000Y-59690000D01*
X38100000Y-52070000D02*
X38100000Y-48260000D01*
X42545000Y-46355000D02*
X42585000Y-46395000D01*
X50165000Y-61595000D02*
X41910000Y-61595000D01*
X38100000Y-48260000D02*
X40005000Y-46355000D01*
X45720000Y-46395000D02*
X48895000Y-49570000D01*
X41910000Y-61595000D02*
X40640000Y-60325000D01*
X40005000Y-53975000D02*
X38100000Y-52070000D01*
X41275000Y-53975000D02*
X40005000Y-53975000D01*
X40005000Y-46355000D02*
X42545000Y-46355000D01*
X42585000Y-46395000D02*
X45720000Y-46395000D01*
X41275000Y-59690000D02*
X40640000Y-60325000D01*
D32*
%TO.N,/TSignalIN*%
X85715000Y-62855000D02*
X85715000Y-74920000D01*
X76835000Y-60960000D02*
X79375000Y-60960000D01*
X79375000Y-60960000D02*
X82550000Y-60960000D01*
X83820000Y-60960000D02*
X85715000Y-62855000D01*
X82550000Y-60960000D02*
X83820000Y-60960000D01*
X82550000Y-57785000D02*
X82550000Y-60960000D01*
%TO.N,/SSignalIN*%
X73660000Y-60960000D02*
X71120000Y-60960000D01*
X75565000Y-62865000D02*
X81915000Y-62865000D01*
X74930000Y-57785000D02*
X74930000Y-59690000D01*
X83820000Y-75565000D02*
X85715000Y-77460000D01*
X73660000Y-60960000D02*
X75565000Y-62865000D01*
X81915000Y-62865000D02*
X83820000Y-64770000D01*
X74930000Y-59690000D02*
X73660000Y-60960000D01*
X83820000Y-64770000D02*
X83820000Y-75565000D01*
%TO.N,/RSignalIN*%
X79375000Y-64770000D02*
X81915000Y-67310000D01*
X81915000Y-67310000D02*
X81915000Y-76200000D01*
X67310000Y-60960000D02*
X71120000Y-64770000D01*
X64770000Y-60960000D02*
X67310000Y-60960000D01*
X81915000Y-76200000D02*
X85715000Y-80000000D01*
X71120000Y-64770000D02*
X79375000Y-64770000D01*
X67310000Y-57785000D02*
X67310000Y-60960000D01*
%TO.N,/TSignal*%
X89535000Y-76200000D02*
X93335000Y-80000000D01*
X89535000Y-69850000D02*
X89535000Y-76200000D01*
%TO.N,/SSignal*%
X91440000Y-75565000D02*
X93335000Y-77460000D01*
X89535000Y-62230000D02*
X91440000Y-64135000D01*
X91440000Y-64135000D02*
X91440000Y-75565000D01*
%TO.N,/RSignal*%
X87630000Y-56515000D02*
X87630000Y-76835000D01*
X87630000Y-76835000D02*
X93335000Y-82540000D01*
X89535000Y-54610000D02*
X87630000Y-56515000D01*
D31*
%TO.N,/TurnSignal_12V*%
X77470000Y-69850000D02*
X76835000Y-69215000D01*
X77470000Y-78105000D02*
X77470000Y-69850000D01*
X76835000Y-69215000D02*
X76835000Y-68580000D01*
%TO.N,/StopSignal_12V*%
X72390000Y-78105000D02*
X72390000Y-71755000D01*
X72390000Y-71755000D02*
X73660000Y-70485000D01*
X73660000Y-70485000D02*
X73660000Y-68580000D01*
%TO.N,/RunSignal_12V*%
X67310000Y-78105000D02*
X67310000Y-68580000D01*
D30*
%TO.N,Net-(J1-Pad2)*%
X97155000Y-69850000D02*
X98415000Y-71110000D01*
X98415000Y-71110000D02*
X100965000Y-71110000D01*
%TO.N,Net-(J1-Pad5)*%
X97155000Y-62230000D02*
X98415000Y-63490000D01*
X98415000Y-63490000D02*
X100965000Y-63490000D01*
%TO.N,Net-(J1-Pad8)*%
X98415000Y-55870000D02*
X100965000Y-55870000D01*
X97155000Y-54610000D02*
X98415000Y-55870000D01*
%TD*%
M02*
