%TF.GenerationSoftware,KiCad,Pcbnew,(6.0.9)*%
%TF.CreationDate,2022-12-15T21:37:47+02:00*%
%TF.ProjectId,custom_arduino,63757374-6f6d-45f6-9172-6475696e6f2e,rev?*%
%TF.SameCoordinates,Original*%
%TF.FileFunction,Legend,Top*%
%TF.FilePolarity,Positive*%
%FSLAX46Y46*%
G04 Gerber Fmt 4.6, Leading zero omitted, Abs format (unit mm)*
G04 Created by KiCad (PCBNEW (6.0.9)) date 2022-12-15 21:37:47*
%MOMM*%
%LPD*%
G01*
G04 APERTURE LIST*
%ADD10C,0.150000*%
%ADD11C,0.304800*%
%ADD12C,0.120000*%
%ADD13C,0.254000*%
%ADD14R,2.999740X2.999740*%
%ADD15C,2.999740*%
G04 APERTURE END LIST*
D10*
X53642857Y-103566666D02*
X54119047Y-103566666D01*
X53547619Y-103852380D02*
X53880952Y-102852380D01*
X54214285Y-103852380D01*
X54547619Y-103852380D02*
X54547619Y-103185714D01*
X54547619Y-103376190D02*
X54595238Y-103280952D01*
X54642857Y-103233333D01*
X54738095Y-103185714D01*
X54833333Y-103185714D01*
X55595238Y-103852380D02*
X55595238Y-102852380D01*
X55595238Y-103804761D02*
X55500000Y-103852380D01*
X55309523Y-103852380D01*
X55214285Y-103804761D01*
X55166666Y-103757142D01*
X55119047Y-103661904D01*
X55119047Y-103376190D01*
X55166666Y-103280952D01*
X55214285Y-103233333D01*
X55309523Y-103185714D01*
X55500000Y-103185714D01*
X55595238Y-103233333D01*
X56500000Y-103185714D02*
X56500000Y-103852380D01*
X56071428Y-103185714D02*
X56071428Y-103709523D01*
X56119047Y-103804761D01*
X56214285Y-103852380D01*
X56357142Y-103852380D01*
X56452380Y-103804761D01*
X56500000Y-103757142D01*
X56976190Y-103852380D02*
X56976190Y-103185714D01*
X56976190Y-102852380D02*
X56928571Y-102900000D01*
X56976190Y-102947619D01*
X57023809Y-102900000D01*
X56976190Y-102852380D01*
X56976190Y-102947619D01*
X57452380Y-103185714D02*
X57452380Y-103852380D01*
X57452380Y-103280952D02*
X57500000Y-103233333D01*
X57595238Y-103185714D01*
X57738095Y-103185714D01*
X57833333Y-103233333D01*
X57880952Y-103328571D01*
X57880952Y-103852380D01*
X58500000Y-103852380D02*
X58404761Y-103804761D01*
X58357142Y-103757142D01*
X58309523Y-103661904D01*
X58309523Y-103376190D01*
X58357142Y-103280952D01*
X58404761Y-103233333D01*
X58500000Y-103185714D01*
X58642857Y-103185714D01*
X58738095Y-103233333D01*
X58785714Y-103280952D01*
X58833333Y-103376190D01*
X58833333Y-103661904D01*
X58785714Y-103757142D01*
X58738095Y-103804761D01*
X58642857Y-103852380D01*
X58500000Y-103852380D01*
X60023809Y-103852380D02*
X60023809Y-102852380D01*
X60595238Y-103852380D01*
X60595238Y-102852380D01*
X61500000Y-103852380D02*
X61500000Y-103328571D01*
X61452380Y-103233333D01*
X61357142Y-103185714D01*
X61166666Y-103185714D01*
X61071428Y-103233333D01*
X61500000Y-103804761D02*
X61404761Y-103852380D01*
X61166666Y-103852380D01*
X61071428Y-103804761D01*
X61023809Y-103709523D01*
X61023809Y-103614285D01*
X61071428Y-103519047D01*
X61166666Y-103471428D01*
X61404761Y-103471428D01*
X61500000Y-103423809D01*
X61976190Y-103185714D02*
X61976190Y-103852380D01*
X61976190Y-103280952D02*
X62023809Y-103233333D01*
X62119047Y-103185714D01*
X62261904Y-103185714D01*
X62357142Y-103233333D01*
X62404761Y-103328571D01*
X62404761Y-103852380D01*
X63023809Y-103852380D02*
X62928571Y-103804761D01*
X62880952Y-103757142D01*
X62833333Y-103661904D01*
X62833333Y-103376190D01*
X62880952Y-103280952D01*
X62928571Y-103233333D01*
X63023809Y-103185714D01*
X63166666Y-103185714D01*
X63261904Y-103233333D01*
X63309523Y-103280952D01*
X63357142Y-103376190D01*
X63357142Y-103661904D01*
X63309523Y-103757142D01*
X63261904Y-103804761D01*
X63166666Y-103852380D01*
X63023809Y-103852380D01*
X32388660Y-115366666D02*
X32864851Y-115366666D01*
X32257708Y-115652380D02*
X32716041Y-114652380D01*
X32924374Y-115652380D01*
X33239851Y-114652380D02*
X33811279Y-114652380D01*
X33400565Y-115652380D02*
X33525565Y-114652380D01*
X34001755Y-114652380D02*
X34573184Y-114652380D01*
X34162470Y-115652380D02*
X34287470Y-114652380D01*
X34781517Y-115652380D02*
X34864851Y-114985714D01*
X34906517Y-114652380D02*
X34852946Y-114700000D01*
X34894613Y-114747619D01*
X34948184Y-114700000D01*
X34906517Y-114652380D01*
X34894613Y-114747619D01*
X35341041Y-114985714D02*
X35257708Y-115652380D01*
X35329136Y-115080952D02*
X35382708Y-115033333D01*
X35483898Y-114985714D01*
X35626755Y-114985714D01*
X35716041Y-115033333D01*
X35751755Y-115128571D01*
X35686279Y-115652380D01*
X36150565Y-114985714D02*
X36305327Y-115652380D01*
X36626755Y-114985714D02*
X36305327Y-115652380D01*
X36180327Y-115890476D01*
X36126755Y-115938095D01*
X36025565Y-115985714D01*
X37138660Y-115080952D02*
X37049375Y-115033333D01*
X37007708Y-114985714D01*
X36971994Y-114890476D01*
X36977946Y-114842857D01*
X37037470Y-114747619D01*
X37091041Y-114700000D01*
X37192232Y-114652380D01*
X37382708Y-114652380D01*
X37471994Y-114700000D01*
X37513660Y-114747619D01*
X37549375Y-114842857D01*
X37543422Y-114890476D01*
X37483898Y-114985714D01*
X37430327Y-115033333D01*
X37329136Y-115080952D01*
X37138660Y-115080952D01*
X37037470Y-115128571D01*
X36983898Y-115176190D01*
X36924375Y-115271428D01*
X36900565Y-115461904D01*
X36936279Y-115557142D01*
X36977946Y-115604761D01*
X37067232Y-115652380D01*
X37257708Y-115652380D01*
X37358898Y-115604761D01*
X37412470Y-115557142D01*
X37471994Y-115461904D01*
X37495803Y-115271428D01*
X37460089Y-115176190D01*
X37418422Y-115128571D01*
X37329136Y-115080952D01*
X38477946Y-114652380D02*
X38001755Y-114652380D01*
X37894613Y-115128571D01*
X37948184Y-115080952D01*
X38049375Y-115033333D01*
X38287470Y-115033333D01*
X38376755Y-115080952D01*
X38418422Y-115128571D01*
X38454136Y-115223809D01*
X38424375Y-115461904D01*
X38364851Y-115557142D01*
X38311279Y-115604761D01*
X38210089Y-115652380D01*
X37971994Y-115652380D01*
X37882708Y-115604761D01*
X37841041Y-115557142D01*
X39591041Y-115652380D02*
X39716041Y-114652380D01*
X40096994Y-114652380D01*
X40186279Y-114700000D01*
X40227946Y-114747619D01*
X40263660Y-114842857D01*
X40245803Y-114985714D01*
X40186279Y-115080952D01*
X40132708Y-115128571D01*
X40031517Y-115176190D01*
X39650565Y-115176190D01*
X40591041Y-115652380D02*
X40674375Y-114985714D01*
X40650565Y-115176190D02*
X40710089Y-115080952D01*
X40763660Y-115033333D01*
X40864851Y-114985714D01*
X40960089Y-114985714D01*
X41352946Y-115652380D02*
X41263660Y-115604761D01*
X41221994Y-115557142D01*
X41186279Y-115461904D01*
X41221994Y-115176190D01*
X41281517Y-115080952D01*
X41335089Y-115033333D01*
X41436279Y-114985714D01*
X41579136Y-114985714D01*
X41668422Y-115033333D01*
X41710089Y-115080952D01*
X41745803Y-115176190D01*
X41710089Y-115461904D01*
X41650565Y-115557142D01*
X41596994Y-115604761D01*
X41495803Y-115652380D01*
X41352946Y-115652380D01*
X42626755Y-114985714D02*
X42525565Y-115795238D01*
X42466041Y-115890476D01*
X42412470Y-115938095D01*
X42311279Y-115985714D01*
X42168422Y-115985714D01*
X42079136Y-115938095D01*
X42549375Y-115604761D02*
X42448184Y-115652380D01*
X42257708Y-115652380D01*
X42168422Y-115604761D01*
X42126755Y-115557142D01*
X42091041Y-115461904D01*
X42126755Y-115176190D01*
X42186279Y-115080952D01*
X42239851Y-115033333D01*
X42341041Y-114985714D01*
X42531517Y-114985714D01*
X42620803Y-115033333D01*
X43019613Y-115652380D02*
X43102946Y-114985714D01*
X43079136Y-115176190D02*
X43138660Y-115080952D01*
X43192232Y-115033333D01*
X43293422Y-114985714D01*
X43388660Y-114985714D01*
X44067232Y-115652380D02*
X44132708Y-115128571D01*
X44096994Y-115033333D01*
X44007708Y-114985714D01*
X43817232Y-114985714D01*
X43716041Y-115033333D01*
X44073184Y-115604761D02*
X43971994Y-115652380D01*
X43733898Y-115652380D01*
X43644613Y-115604761D01*
X43608898Y-115509523D01*
X43620803Y-115414285D01*
X43680327Y-115319047D01*
X43781517Y-115271428D01*
X44019613Y-115271428D01*
X44120803Y-115223809D01*
X44543422Y-115652380D02*
X44626755Y-114985714D01*
X44614851Y-115080952D02*
X44668422Y-115033333D01*
X44769613Y-114985714D01*
X44912470Y-114985714D01*
X45001755Y-115033333D01*
X45037470Y-115128571D01*
X44971994Y-115652380D01*
X45037470Y-115128571D02*
X45096994Y-115033333D01*
X45198184Y-114985714D01*
X45341041Y-114985714D01*
X45430327Y-115033333D01*
X45466041Y-115128571D01*
X45400565Y-115652380D01*
X45876755Y-115652380D02*
X45960089Y-114985714D01*
X45948184Y-115080952D02*
X46001755Y-115033333D01*
X46102946Y-114985714D01*
X46245803Y-114985714D01*
X46335089Y-115033333D01*
X46370803Y-115128571D01*
X46305327Y-115652380D01*
X46370803Y-115128571D02*
X46430327Y-115033333D01*
X46531517Y-114985714D01*
X46674375Y-114985714D01*
X46763660Y-115033333D01*
X46799375Y-115128571D01*
X46733898Y-115652380D01*
X47596994Y-115604761D02*
X47495803Y-115652380D01*
X47305327Y-115652380D01*
X47216041Y-115604761D01*
X47180327Y-115509523D01*
X47227946Y-115128571D01*
X47287470Y-115033333D01*
X47388660Y-114985714D01*
X47579136Y-114985714D01*
X47668422Y-115033333D01*
X47704136Y-115128571D01*
X47692232Y-115223809D01*
X47204136Y-115319047D01*
X48067232Y-115652380D02*
X48150565Y-114985714D01*
X48126755Y-115176190D02*
X48186279Y-115080952D01*
X48239851Y-115033333D01*
X48341041Y-114985714D01*
X48436279Y-114985714D01*
X51828571Y-80419047D02*
X51876190Y-80276190D01*
X51923809Y-80228571D01*
X52019047Y-80180952D01*
X52161904Y-80180952D01*
X52257142Y-80228571D01*
X52304761Y-80276190D01*
X52352380Y-80371428D01*
X52352380Y-80752380D01*
X51352380Y-80752380D01*
X51352380Y-80419047D01*
X51400000Y-80323809D01*
X51447619Y-80276190D01*
X51542857Y-80228571D01*
X51638095Y-80228571D01*
X51733333Y-80276190D01*
X51780952Y-80323809D01*
X51828571Y-80419047D01*
X51828571Y-80752380D01*
X52352380Y-79180952D02*
X51876190Y-79514285D01*
X52352380Y-79752380D02*
X51352380Y-79752380D01*
X51352380Y-79371428D01*
X51400000Y-79276190D01*
X51447619Y-79228571D01*
X51542857Y-79180952D01*
X51685714Y-79180952D01*
X51780952Y-79228571D01*
X51828571Y-79276190D01*
X51876190Y-79371428D01*
X51876190Y-79752380D01*
X52352380Y-78752380D02*
X51352380Y-78752380D01*
X52352380Y-78276190D02*
X51352380Y-78276190D01*
X51352380Y-78038095D01*
X51400000Y-77895238D01*
X51495238Y-77800000D01*
X51590476Y-77752380D01*
X51780952Y-77704761D01*
X51923809Y-77704761D01*
X52114285Y-77752380D01*
X52209523Y-77800000D01*
X52304761Y-77895238D01*
X52352380Y-78038095D01*
X52352380Y-78276190D01*
X51400000Y-76752380D02*
X51352380Y-76847619D01*
X51352380Y-76990476D01*
X51400000Y-77133333D01*
X51495238Y-77228571D01*
X51590476Y-77276190D01*
X51780952Y-77323809D01*
X51923809Y-77323809D01*
X52114285Y-77276190D01*
X52209523Y-77228571D01*
X52304761Y-77133333D01*
X52352380Y-76990476D01*
X52352380Y-76895238D01*
X52304761Y-76752380D01*
X52257142Y-76704761D01*
X51923809Y-76704761D01*
X51923809Y-76895238D01*
X51828571Y-76276190D02*
X51828571Y-75942857D01*
X52352380Y-75800000D02*
X52352380Y-76276190D01*
X51352380Y-76276190D01*
X51352380Y-75800000D01*
X52700000Y-73400000D02*
X52700000Y-83000000D01*
X55876190Y-85052380D02*
X55876190Y-84052380D01*
X56352380Y-85052380D02*
X56352380Y-84052380D01*
X56923809Y-85052380D01*
X56923809Y-84052380D01*
X57399999Y-85052380D02*
X57399999Y-84052380D01*
X57780952Y-84052380D01*
X57876190Y-84100000D01*
X57923809Y-84147619D01*
X57971428Y-84242857D01*
X57971428Y-84385714D01*
X57923809Y-84480952D01*
X57876190Y-84528571D01*
X57780952Y-84576190D01*
X57399999Y-84576190D01*
X58399999Y-84052380D02*
X58399999Y-84861904D01*
X58447619Y-84957142D01*
X58495238Y-85004761D01*
X58590476Y-85052380D01*
X58780952Y-85052380D01*
X58876190Y-85004761D01*
X58923809Y-84957142D01*
X58971428Y-84861904D01*
X58971428Y-84052380D01*
X59304761Y-84052380D02*
X59876190Y-84052380D01*
X59590476Y-85052380D02*
X59590476Y-84052380D01*
X60161904Y-85004761D02*
X60304761Y-85052380D01*
X60542857Y-85052380D01*
X60638095Y-85004761D01*
X60685714Y-84957142D01*
X60733333Y-84861904D01*
X60733333Y-84766666D01*
X60685714Y-84671428D01*
X60638095Y-84623809D01*
X60542857Y-84576190D01*
X60352380Y-84528571D01*
X60257142Y-84480952D01*
X60209523Y-84433333D01*
X60161904Y-84338095D01*
X60161904Y-84242857D01*
X60209523Y-84147619D01*
X60257142Y-84100000D01*
X60352380Y-84052380D01*
X60590476Y-84052380D01*
X60733333Y-84100000D01*
X62447619Y-85052380D02*
X61876190Y-85052380D01*
X62161904Y-85052380D02*
X62161904Y-84052380D01*
X62066666Y-84195238D01*
X61971428Y-84290476D01*
X61876190Y-84338095D01*
X62828571Y-84147619D02*
X62876190Y-84100000D01*
X62971428Y-84052380D01*
X63209523Y-84052380D01*
X63304761Y-84100000D01*
X63352380Y-84147619D01*
X63399999Y-84242857D01*
X63399999Y-84338095D01*
X63352380Y-84480952D01*
X62780952Y-85052380D01*
X63399999Y-85052380D01*
X63685714Y-84052380D02*
X64019047Y-85052380D01*
X64352380Y-84052380D01*
X66733333Y-84100000D02*
X66638095Y-84052380D01*
X66495238Y-84052380D01*
X66352380Y-84100000D01*
X66257142Y-84195238D01*
X66209523Y-84290476D01*
X66161904Y-84480952D01*
X66161904Y-84623809D01*
X66209523Y-84814285D01*
X66257142Y-84909523D01*
X66352380Y-85004761D01*
X66495238Y-85052380D01*
X66590476Y-85052380D01*
X66733333Y-85004761D01*
X66780952Y-84957142D01*
X66780952Y-84623809D01*
X66590476Y-84623809D01*
X67209523Y-85052380D02*
X67209523Y-84052380D01*
X67780952Y-85052380D01*
X67780952Y-84052380D01*
X68257142Y-85052380D02*
X68257142Y-84052380D01*
X68495238Y-84052380D01*
X68638095Y-84100000D01*
X68733333Y-84195238D01*
X68780952Y-84290476D01*
X68828571Y-84480952D01*
X68828571Y-84623809D01*
X68780952Y-84814285D01*
X68733333Y-84909523D01*
X68638095Y-85004761D01*
X68495238Y-85052380D01*
X68257142Y-85052380D01*
X71352380Y-85052380D02*
X71019047Y-84576190D01*
X70780952Y-85052380D02*
X70780952Y-84052380D01*
X71161904Y-84052380D01*
X71257142Y-84100000D01*
X71304761Y-84147619D01*
X71352380Y-84242857D01*
X71352380Y-84385714D01*
X71304761Y-84480952D01*
X71257142Y-84528571D01*
X71161904Y-84576190D01*
X70780952Y-84576190D01*
X71733333Y-85004761D02*
X71876190Y-85052380D01*
X72114285Y-85052380D01*
X72209523Y-85004761D01*
X72257142Y-84957142D01*
X72304761Y-84861904D01*
X72304761Y-84766666D01*
X72257142Y-84671428D01*
X72209523Y-84623809D01*
X72114285Y-84576190D01*
X71923809Y-84528571D01*
X71828571Y-84480952D01*
X71780952Y-84433333D01*
X71733333Y-84338095D01*
X71733333Y-84242857D01*
X71780952Y-84147619D01*
X71828571Y-84100000D01*
X71923809Y-84052380D01*
X72161904Y-84052380D01*
X72304761Y-84100000D01*
X74209523Y-85004761D02*
X74352380Y-85052380D01*
X74590476Y-85052380D01*
X74685714Y-85004761D01*
X74733333Y-84957142D01*
X74780952Y-84861904D01*
X74780952Y-84766666D01*
X74733333Y-84671428D01*
X74685714Y-84623809D01*
X74590476Y-84576190D01*
X74399999Y-84528571D01*
X74304761Y-84480952D01*
X74257142Y-84433333D01*
X74209523Y-84338095D01*
X74209523Y-84242857D01*
X74257142Y-84147619D01*
X74304761Y-84100000D01*
X74399999Y-84052380D01*
X74638095Y-84052380D01*
X74780952Y-84100000D01*
X75161904Y-85004761D02*
X75304761Y-85052380D01*
X75542857Y-85052380D01*
X75638095Y-85004761D01*
X75685714Y-84957142D01*
X75733333Y-84861904D01*
X75733333Y-84766666D01*
X75685714Y-84671428D01*
X75638095Y-84623809D01*
X75542857Y-84576190D01*
X75352380Y-84528571D01*
X75257142Y-84480952D01*
X75209523Y-84433333D01*
X75161904Y-84338095D01*
X75161904Y-84242857D01*
X75209523Y-84147619D01*
X75257142Y-84100000D01*
X75352380Y-84052380D01*
X75590476Y-84052380D01*
X75733333Y-84100000D01*
X77542857Y-84052380D02*
X78114285Y-84052380D01*
X77828571Y-85052380D02*
X77828571Y-84052380D01*
X78399999Y-85004761D02*
X78542857Y-85052380D01*
X78780952Y-85052380D01*
X78876190Y-85004761D01*
X78923809Y-84957142D01*
X78971428Y-84861904D01*
X78971428Y-84766666D01*
X78923809Y-84671428D01*
X78876190Y-84623809D01*
X78780952Y-84576190D01*
X78590476Y-84528571D01*
X78495238Y-84480952D01*
X78447619Y-84433333D01*
X78399999Y-84338095D01*
X78399999Y-84242857D01*
X78447619Y-84147619D01*
X78495238Y-84100000D01*
X78590476Y-84052380D01*
X78828571Y-84052380D01*
X78971428Y-84100000D01*
X103438095Y-57060000D02*
X103342857Y-57012380D01*
X103200000Y-57012380D01*
X103057142Y-57060000D01*
X102961904Y-57155238D01*
X102914285Y-57250476D01*
X102866666Y-57440952D01*
X102866666Y-57583809D01*
X102914285Y-57774285D01*
X102961904Y-57869523D01*
X103057142Y-57964761D01*
X103200000Y-58012380D01*
X103295238Y-58012380D01*
X103438095Y-57964761D01*
X103485714Y-57917142D01*
X103485714Y-57583809D01*
X103295238Y-57583809D01*
X103914285Y-58012380D02*
X103914285Y-57012380D01*
X104485714Y-58012380D01*
X104485714Y-57012380D01*
X104961904Y-58012380D02*
X104961904Y-57012380D01*
X105200000Y-57012380D01*
X105342857Y-57060000D01*
X105438095Y-57155238D01*
X105485714Y-57250476D01*
X105533333Y-57440952D01*
X105533333Y-57583809D01*
X105485714Y-57774285D01*
X105438095Y-57869523D01*
X105342857Y-57964761D01*
X105200000Y-58012380D01*
X104961904Y-58012380D01*
X104033333Y-59622380D02*
X103700000Y-59146190D01*
X103461904Y-59622380D02*
X103461904Y-58622380D01*
X103842857Y-58622380D01*
X103938095Y-58670000D01*
X103985714Y-58717619D01*
X104033333Y-58812857D01*
X104033333Y-58955714D01*
X103985714Y-59050952D01*
X103938095Y-59098571D01*
X103842857Y-59146190D01*
X103461904Y-59146190D01*
X104414285Y-59574761D02*
X104557142Y-59622380D01*
X104795238Y-59622380D01*
X104890476Y-59574761D01*
X104938095Y-59527142D01*
X104985714Y-59431904D01*
X104985714Y-59336666D01*
X104938095Y-59241428D01*
X104890476Y-59193809D01*
X104795238Y-59146190D01*
X104604761Y-59098571D01*
X104509523Y-59050952D01*
X104461904Y-59003333D01*
X104414285Y-58908095D01*
X104414285Y-58812857D01*
X104461904Y-58717619D01*
X104509523Y-58670000D01*
X104604761Y-58622380D01*
X104842857Y-58622380D01*
X104985714Y-58670000D01*
X104009523Y-60232380D02*
X103533333Y-60232380D01*
X103485714Y-60708571D01*
X103533333Y-60660952D01*
X103628571Y-60613333D01*
X103866666Y-60613333D01*
X103961904Y-60660952D01*
X104009523Y-60708571D01*
X104057142Y-60803809D01*
X104057142Y-61041904D01*
X104009523Y-61137142D01*
X103961904Y-61184761D01*
X103866666Y-61232380D01*
X103628571Y-61232380D01*
X103533333Y-61184761D01*
X103485714Y-61137142D01*
X104342857Y-60232380D02*
X104676190Y-61232380D01*
X105009523Y-60232380D01*
X103438095Y-61890000D02*
X103342857Y-61842380D01*
X103200000Y-61842380D01*
X103057142Y-61890000D01*
X102961904Y-61985238D01*
X102914285Y-62080476D01*
X102866666Y-62270952D01*
X102866666Y-62413809D01*
X102914285Y-62604285D01*
X102961904Y-62699523D01*
X103057142Y-62794761D01*
X103200000Y-62842380D01*
X103295238Y-62842380D01*
X103438095Y-62794761D01*
X103485714Y-62747142D01*
X103485714Y-62413809D01*
X103295238Y-62413809D01*
X103914285Y-62842380D02*
X103914285Y-61842380D01*
X104485714Y-62842380D01*
X104485714Y-61842380D01*
X104961904Y-62842380D02*
X104961904Y-61842380D01*
X105200000Y-61842380D01*
X105342857Y-61890000D01*
X105438095Y-61985238D01*
X105485714Y-62080476D01*
X105533333Y-62270952D01*
X105533333Y-62413809D01*
X105485714Y-62604285D01*
X105438095Y-62699523D01*
X105342857Y-62794761D01*
X105200000Y-62842380D01*
X104961904Y-62842380D01*
X103438095Y-64404761D02*
X103580952Y-64452380D01*
X103819047Y-64452380D01*
X103914285Y-64404761D01*
X103961904Y-64357142D01*
X104009523Y-64261904D01*
X104009523Y-64166666D01*
X103961904Y-64071428D01*
X103914285Y-64023809D01*
X103819047Y-63976190D01*
X103628571Y-63928571D01*
X103533333Y-63880952D01*
X103485714Y-63833333D01*
X103438095Y-63738095D01*
X103438095Y-63642857D01*
X103485714Y-63547619D01*
X103533333Y-63500000D01*
X103628571Y-63452380D01*
X103866666Y-63452380D01*
X104009523Y-63500000D01*
X104390476Y-64404761D02*
X104533333Y-64452380D01*
X104771428Y-64452380D01*
X104866666Y-64404761D01*
X104914285Y-64357142D01*
X104961904Y-64261904D01*
X104961904Y-64166666D01*
X104914285Y-64071428D01*
X104866666Y-64023809D01*
X104771428Y-63976190D01*
X104580952Y-63928571D01*
X104485714Y-63880952D01*
X104438095Y-63833333D01*
X104390476Y-63738095D01*
X104390476Y-63642857D01*
X104438095Y-63547619D01*
X104485714Y-63500000D01*
X104580952Y-63452380D01*
X104819047Y-63452380D01*
X104961904Y-63500000D01*
X104009523Y-65062380D02*
X103533333Y-65062380D01*
X103485714Y-65538571D01*
X103533333Y-65490952D01*
X103628571Y-65443333D01*
X103866666Y-65443333D01*
X103961904Y-65490952D01*
X104009523Y-65538571D01*
X104057142Y-65633809D01*
X104057142Y-65871904D01*
X104009523Y-65967142D01*
X103961904Y-66014761D01*
X103866666Y-66062380D01*
X103628571Y-66062380D01*
X103533333Y-66014761D01*
X103485714Y-65967142D01*
X104342857Y-65062380D02*
X104676190Y-66062380D01*
X105009523Y-65062380D01*
X103438095Y-66720000D02*
X103342857Y-66672380D01*
X103200000Y-66672380D01*
X103057142Y-66720000D01*
X102961904Y-66815238D01*
X102914285Y-66910476D01*
X102866666Y-67100952D01*
X102866666Y-67243809D01*
X102914285Y-67434285D01*
X102961904Y-67529523D01*
X103057142Y-67624761D01*
X103200000Y-67672380D01*
X103295238Y-67672380D01*
X103438095Y-67624761D01*
X103485714Y-67577142D01*
X103485714Y-67243809D01*
X103295238Y-67243809D01*
X103914285Y-67672380D02*
X103914285Y-66672380D01*
X104485714Y-67672380D01*
X104485714Y-66672380D01*
X104961904Y-67672380D02*
X104961904Y-66672380D01*
X105200000Y-66672380D01*
X105342857Y-66720000D01*
X105438095Y-66815238D01*
X105485714Y-66910476D01*
X105533333Y-67100952D01*
X105533333Y-67243809D01*
X105485714Y-67434285D01*
X105438095Y-67529523D01*
X105342857Y-67624761D01*
X105200000Y-67672380D01*
X104961904Y-67672380D01*
X103438095Y-68282380D02*
X104009523Y-68282380D01*
X103723809Y-69282380D02*
X103723809Y-68282380D01*
X104295238Y-69234761D02*
X104438095Y-69282380D01*
X104676190Y-69282380D01*
X104771428Y-69234761D01*
X104819047Y-69187142D01*
X104866666Y-69091904D01*
X104866666Y-68996666D01*
X104819047Y-68901428D01*
X104771428Y-68853809D01*
X104676190Y-68806190D01*
X104485714Y-68758571D01*
X104390476Y-68710952D01*
X104342857Y-68663333D01*
X104295238Y-68568095D01*
X104295238Y-68472857D01*
X104342857Y-68377619D01*
X104390476Y-68330000D01*
X104485714Y-68282380D01*
X104723809Y-68282380D01*
X104866666Y-68330000D01*
X104009523Y-69892380D02*
X103533333Y-69892380D01*
X103485714Y-70368571D01*
X103533333Y-70320952D01*
X103628571Y-70273333D01*
X103866666Y-70273333D01*
X103961904Y-70320952D01*
X104009523Y-70368571D01*
X104057142Y-70463809D01*
X104057142Y-70701904D01*
X104009523Y-70797142D01*
X103961904Y-70844761D01*
X103866666Y-70892380D01*
X103628571Y-70892380D01*
X103533333Y-70844761D01*
X103485714Y-70797142D01*
X104342857Y-69892380D02*
X104676190Y-70892380D01*
X105009523Y-69892380D01*
X31477946Y-86752380D02*
X32049375Y-86752380D01*
X31638660Y-87752380D02*
X31763660Y-86752380D01*
X32769613Y-87085714D02*
X32686279Y-87752380D01*
X32341041Y-87085714D02*
X32275565Y-87609523D01*
X32311279Y-87704761D01*
X32400565Y-87752380D01*
X32543422Y-87752380D01*
X32644613Y-87704761D01*
X32698184Y-87657142D01*
X33162470Y-87752380D02*
X33245803Y-87085714D01*
X33221994Y-87276190D02*
X33281517Y-87180952D01*
X33335089Y-87133333D01*
X33436279Y-87085714D01*
X33531517Y-87085714D01*
X33864851Y-87085714D02*
X33781517Y-87752380D01*
X33852946Y-87180952D02*
X33906517Y-87133333D01*
X34007708Y-87085714D01*
X34150565Y-87085714D01*
X34239851Y-87133333D01*
X34275565Y-87228571D01*
X34210089Y-87752380D01*
X34644613Y-87704761D02*
X34781517Y-87752380D01*
X35019613Y-87752380D01*
X35120803Y-87704761D01*
X35174375Y-87657142D01*
X35233898Y-87561904D01*
X35245803Y-87466666D01*
X35210089Y-87371428D01*
X35168422Y-87323809D01*
X35079136Y-87276190D01*
X34894613Y-87228571D01*
X34805327Y-87180952D01*
X34763660Y-87133333D01*
X34727946Y-87038095D01*
X34739851Y-86942857D01*
X34799375Y-86847619D01*
X34852946Y-86800000D01*
X34954136Y-86752380D01*
X35192232Y-86752380D01*
X35329136Y-86800000D01*
X35638660Y-87752380D02*
X35721994Y-87085714D01*
X35763660Y-86752380D02*
X35710089Y-86800000D01*
X35751755Y-86847619D01*
X35805327Y-86800000D01*
X35763660Y-86752380D01*
X35751755Y-86847619D01*
X36626755Y-87085714D02*
X36525565Y-87895238D01*
X36466041Y-87990476D01*
X36412470Y-88038095D01*
X36311279Y-88085714D01*
X36168422Y-88085714D01*
X36079136Y-88038095D01*
X36549375Y-87704761D02*
X36448184Y-87752380D01*
X36257708Y-87752380D01*
X36168422Y-87704761D01*
X36126755Y-87657142D01*
X36091041Y-87561904D01*
X36126755Y-87276190D01*
X36186279Y-87180952D01*
X36239851Y-87133333D01*
X36341041Y-87085714D01*
X36531517Y-87085714D01*
X36620803Y-87133333D01*
X37102946Y-87085714D02*
X37019613Y-87752380D01*
X37091041Y-87180952D02*
X37144613Y-87133333D01*
X37245803Y-87085714D01*
X37388660Y-87085714D01*
X37477946Y-87133333D01*
X37513660Y-87228571D01*
X37448184Y-87752380D01*
X38352946Y-87752380D02*
X38418422Y-87228571D01*
X38382708Y-87133333D01*
X38293422Y-87085714D01*
X38102946Y-87085714D01*
X38001755Y-87133333D01*
X38358898Y-87704761D02*
X38257708Y-87752380D01*
X38019613Y-87752380D01*
X37930327Y-87704761D01*
X37894613Y-87609523D01*
X37906517Y-87514285D01*
X37966041Y-87419047D01*
X38067232Y-87371428D01*
X38305327Y-87371428D01*
X38406517Y-87323809D01*
X38971994Y-87752380D02*
X38882708Y-87704761D01*
X38846994Y-87609523D01*
X38954136Y-86752380D01*
X39352946Y-87752380D02*
X39477946Y-86752380D01*
X39721994Y-87466666D01*
X40144613Y-86752380D01*
X40019613Y-87752380D01*
X40638660Y-87752380D02*
X40549375Y-87704761D01*
X40507708Y-87657142D01*
X40471994Y-87561904D01*
X40507708Y-87276190D01*
X40567232Y-87180952D01*
X40620803Y-87133333D01*
X40721994Y-87085714D01*
X40864851Y-87085714D01*
X40954136Y-87133333D01*
X40995803Y-87180952D01*
X41031517Y-87276190D01*
X40995803Y-87561904D01*
X40936279Y-87657142D01*
X40882708Y-87704761D01*
X40781517Y-87752380D01*
X40638660Y-87752380D01*
X41829136Y-87752380D02*
X41954136Y-86752380D01*
X41835089Y-87704761D02*
X41733898Y-87752380D01*
X41543422Y-87752380D01*
X41454136Y-87704761D01*
X41412470Y-87657142D01*
X41376755Y-87561904D01*
X41412470Y-87276190D01*
X41471994Y-87180952D01*
X41525565Y-87133333D01*
X41626755Y-87085714D01*
X41817232Y-87085714D01*
X41906517Y-87133333D01*
X42817232Y-87085714D02*
X42733898Y-87752380D01*
X42388660Y-87085714D02*
X42323184Y-87609523D01*
X42358898Y-87704761D01*
X42448184Y-87752380D01*
X42591041Y-87752380D01*
X42692232Y-87704761D01*
X42745803Y-87657142D01*
X43352946Y-87752380D02*
X43263660Y-87704761D01*
X43227946Y-87609523D01*
X43335089Y-86752380D01*
X44120803Y-87704761D02*
X44019613Y-87752380D01*
X43829136Y-87752380D01*
X43739851Y-87704761D01*
X43704136Y-87609523D01*
X43751755Y-87228571D01*
X43811279Y-87133333D01*
X43912470Y-87085714D01*
X44102946Y-87085714D01*
X44192232Y-87133333D01*
X44227946Y-87228571D01*
X44216041Y-87323809D01*
X43727946Y-87419047D01*
%TO.C,U5*%
X97228095Y-103052380D02*
X97228095Y-103861904D01*
X97275714Y-103957142D01*
X97323333Y-104004761D01*
X97418571Y-104052380D01*
X97609047Y-104052380D01*
X97704285Y-104004761D01*
X97751904Y-103957142D01*
X97799523Y-103861904D01*
X97799523Y-103052380D01*
X98751904Y-103052380D02*
X98275714Y-103052380D01*
X98228095Y-103528571D01*
X98275714Y-103480952D01*
X98370952Y-103433333D01*
X98609047Y-103433333D01*
X98704285Y-103480952D01*
X98751904Y-103528571D01*
X98799523Y-103623809D01*
X98799523Y-103861904D01*
X98751904Y-103957142D01*
X98704285Y-104004761D01*
X98609047Y-104052380D01*
X98370952Y-104052380D01*
X98275714Y-104004761D01*
X98228095Y-103957142D01*
%TO.C,J1*%
X100631666Y-75432380D02*
X100631666Y-76146666D01*
X100584047Y-76289523D01*
X100488809Y-76384761D01*
X100345952Y-76432380D01*
X100250714Y-76432380D01*
X101631666Y-76432380D02*
X101060238Y-76432380D01*
X101345952Y-76432380D02*
X101345952Y-75432380D01*
X101250714Y-75575238D01*
X101155476Y-75670476D01*
X101060238Y-75718095D01*
%TO.C,R1*%
X77352380Y-64866666D02*
X76876190Y-65200000D01*
X77352380Y-65438095D02*
X76352380Y-65438095D01*
X76352380Y-65057142D01*
X76400000Y-64961904D01*
X76447619Y-64914285D01*
X76542857Y-64866666D01*
X76685714Y-64866666D01*
X76780952Y-64914285D01*
X76828571Y-64961904D01*
X76876190Y-65057142D01*
X76876190Y-65438095D01*
X77352380Y-63914285D02*
X77352380Y-64485714D01*
X77352380Y-64200000D02*
X76352380Y-64200000D01*
X76495238Y-64295238D01*
X76590476Y-64390476D01*
X76638095Y-64485714D01*
%TO.C,R6*%
X65252380Y-64866666D02*
X64776190Y-65200000D01*
X65252380Y-65438095D02*
X64252380Y-65438095D01*
X64252380Y-65057142D01*
X64300000Y-64961904D01*
X64347619Y-64914285D01*
X64442857Y-64866666D01*
X64585714Y-64866666D01*
X64680952Y-64914285D01*
X64728571Y-64961904D01*
X64776190Y-65057142D01*
X64776190Y-65438095D01*
X64252380Y-64009523D02*
X64252380Y-64200000D01*
X64300000Y-64295238D01*
X64347619Y-64342857D01*
X64490476Y-64438095D01*
X64680952Y-64485714D01*
X65061904Y-64485714D01*
X65157142Y-64438095D01*
X65204761Y-64390476D01*
X65252380Y-64295238D01*
X65252380Y-64104761D01*
X65204761Y-64009523D01*
X65157142Y-63961904D01*
X65061904Y-63914285D01*
X64823809Y-63914285D01*
X64728571Y-63961904D01*
X64680952Y-64009523D01*
X64633333Y-64104761D01*
X64633333Y-64295238D01*
X64680952Y-64390476D01*
X64728571Y-64438095D01*
X64823809Y-64485714D01*
%TO.C,C2*%
X63797142Y-51966666D02*
X63844761Y-52014285D01*
X63892380Y-52157142D01*
X63892380Y-52252380D01*
X63844761Y-52395238D01*
X63749523Y-52490476D01*
X63654285Y-52538095D01*
X63463809Y-52585714D01*
X63320952Y-52585714D01*
X63130476Y-52538095D01*
X63035238Y-52490476D01*
X62940000Y-52395238D01*
X62892380Y-52252380D01*
X62892380Y-52157142D01*
X62940000Y-52014285D01*
X62987619Y-51966666D01*
X62987619Y-51585714D02*
X62940000Y-51538095D01*
X62892380Y-51442857D01*
X62892380Y-51204761D01*
X62940000Y-51109523D01*
X62987619Y-51061904D01*
X63082857Y-51014285D01*
X63178095Y-51014285D01*
X63320952Y-51061904D01*
X63892380Y-51633333D01*
X63892380Y-51014285D01*
%TO.C,U2*%
X36767380Y-80771904D02*
X37576904Y-80771904D01*
X37672142Y-80724285D01*
X37719761Y-80676666D01*
X37767380Y-80581428D01*
X37767380Y-80390952D01*
X37719761Y-80295714D01*
X37672142Y-80248095D01*
X37576904Y-80200476D01*
X36767380Y-80200476D01*
X36862619Y-79771904D02*
X36815000Y-79724285D01*
X36767380Y-79629047D01*
X36767380Y-79390952D01*
X36815000Y-79295714D01*
X36862619Y-79248095D01*
X36957857Y-79200476D01*
X37053095Y-79200476D01*
X37195952Y-79248095D01*
X37767380Y-79819523D01*
X37767380Y-79200476D01*
%TO.C,R9*%
X93178333Y-62752380D02*
X92845000Y-62276190D01*
X92606904Y-62752380D02*
X92606904Y-61752380D01*
X92987857Y-61752380D01*
X93083095Y-61800000D01*
X93130714Y-61847619D01*
X93178333Y-61942857D01*
X93178333Y-62085714D01*
X93130714Y-62180952D01*
X93083095Y-62228571D01*
X92987857Y-62276190D01*
X92606904Y-62276190D01*
X93654523Y-62752380D02*
X93845000Y-62752380D01*
X93940238Y-62704761D01*
X93987857Y-62657142D01*
X94083095Y-62514285D01*
X94130714Y-62323809D01*
X94130714Y-61942857D01*
X94083095Y-61847619D01*
X94035476Y-61800000D01*
X93940238Y-61752380D01*
X93749761Y-61752380D01*
X93654523Y-61800000D01*
X93606904Y-61847619D01*
X93559285Y-61942857D01*
X93559285Y-62180952D01*
X93606904Y-62276190D01*
X93654523Y-62323809D01*
X93749761Y-62371428D01*
X93940238Y-62371428D01*
X94035476Y-62323809D01*
X94083095Y-62276190D01*
X94130714Y-62180952D01*
%TO.C,R8*%
X93233333Y-70252380D02*
X92900000Y-69776190D01*
X92661904Y-70252380D02*
X92661904Y-69252380D01*
X93042857Y-69252380D01*
X93138095Y-69300000D01*
X93185714Y-69347619D01*
X93233333Y-69442857D01*
X93233333Y-69585714D01*
X93185714Y-69680952D01*
X93138095Y-69728571D01*
X93042857Y-69776190D01*
X92661904Y-69776190D01*
X93804761Y-69680952D02*
X93709523Y-69633333D01*
X93661904Y-69585714D01*
X93614285Y-69490476D01*
X93614285Y-69442857D01*
X93661904Y-69347619D01*
X93709523Y-69300000D01*
X93804761Y-69252380D01*
X93995238Y-69252380D01*
X94090476Y-69300000D01*
X94138095Y-69347619D01*
X94185714Y-69442857D01*
X94185714Y-69490476D01*
X94138095Y-69585714D01*
X94090476Y-69633333D01*
X93995238Y-69680952D01*
X93804761Y-69680952D01*
X93709523Y-69728571D01*
X93661904Y-69776190D01*
X93614285Y-69871428D01*
X93614285Y-70061904D01*
X93661904Y-70157142D01*
X93709523Y-70204761D01*
X93804761Y-70252380D01*
X93995238Y-70252380D01*
X94090476Y-70204761D01*
X94138095Y-70157142D01*
X94185714Y-70061904D01*
X94185714Y-69871428D01*
X94138095Y-69776190D01*
X94090476Y-69728571D01*
X93995238Y-69680952D01*
%TO.C,C3*%
X49257142Y-82166666D02*
X49304761Y-82214285D01*
X49352380Y-82357142D01*
X49352380Y-82452380D01*
X49304761Y-82595238D01*
X49209523Y-82690476D01*
X49114285Y-82738095D01*
X48923809Y-82785714D01*
X48780952Y-82785714D01*
X48590476Y-82738095D01*
X48495238Y-82690476D01*
X48400000Y-82595238D01*
X48352380Y-82452380D01*
X48352380Y-82357142D01*
X48400000Y-82214285D01*
X48447619Y-82166666D01*
X48352380Y-81833333D02*
X48352380Y-81214285D01*
X48733333Y-81547619D01*
X48733333Y-81404761D01*
X48780952Y-81309523D01*
X48828571Y-81261904D01*
X48923809Y-81214285D01*
X49161904Y-81214285D01*
X49257142Y-81261904D01*
X49304761Y-81309523D01*
X49352380Y-81404761D01*
X49352380Y-81690476D01*
X49304761Y-81785714D01*
X49257142Y-81833333D01*
D11*
%TO.C,J2*%
X66802000Y-71428428D02*
X66802000Y-72517000D01*
X66729428Y-72734714D01*
X66584285Y-72879857D01*
X66366571Y-72952428D01*
X66221428Y-72952428D01*
X67455142Y-71573571D02*
X67527714Y-71501000D01*
X67672857Y-71428428D01*
X68035714Y-71428428D01*
X68180857Y-71501000D01*
X68253428Y-71573571D01*
X68326000Y-71718714D01*
X68326000Y-71863857D01*
X68253428Y-72081571D01*
X67382571Y-72952428D01*
X68326000Y-72952428D01*
D10*
%TO.C,Q1*%
X44637619Y-65870238D02*
X44590000Y-65965476D01*
X44494761Y-66060714D01*
X44351904Y-66203571D01*
X44304285Y-66298809D01*
X44304285Y-66394047D01*
X44542380Y-66346428D02*
X44494761Y-66441666D01*
X44399523Y-66536904D01*
X44209047Y-66584523D01*
X43875714Y-66584523D01*
X43685238Y-66536904D01*
X43590000Y-66441666D01*
X43542380Y-66346428D01*
X43542380Y-66155952D01*
X43590000Y-66060714D01*
X43685238Y-65965476D01*
X43875714Y-65917857D01*
X44209047Y-65917857D01*
X44399523Y-65965476D01*
X44494761Y-66060714D01*
X44542380Y-66155952D01*
X44542380Y-66346428D01*
X44542380Y-64965476D02*
X44542380Y-65536904D01*
X44542380Y-65251190D02*
X43542380Y-65251190D01*
X43685238Y-65346428D01*
X43780476Y-65441666D01*
X43828095Y-65536904D01*
%TO.C,D2*%
X75352380Y-54338095D02*
X74352380Y-54338095D01*
X74352380Y-54100000D01*
X74400000Y-53957142D01*
X74495238Y-53861904D01*
X74590476Y-53814285D01*
X74780952Y-53766666D01*
X74923809Y-53766666D01*
X75114285Y-53814285D01*
X75209523Y-53861904D01*
X75304761Y-53957142D01*
X75352380Y-54100000D01*
X75352380Y-54338095D01*
X74447619Y-53385714D02*
X74400000Y-53338095D01*
X74352380Y-53242857D01*
X74352380Y-53004761D01*
X74400000Y-52909523D01*
X74447619Y-52861904D01*
X74542857Y-52814285D01*
X74638095Y-52814285D01*
X74780952Y-52861904D01*
X75352380Y-53433333D01*
X75352380Y-52814285D01*
X73282380Y-58046904D02*
X72282380Y-58046904D01*
X73282380Y-57475476D02*
X72710952Y-57904047D01*
X72282380Y-57475476D02*
X72853809Y-58046904D01*
%TO.C,D1*%
X82952380Y-54338095D02*
X81952380Y-54338095D01*
X81952380Y-54100000D01*
X82000000Y-53957142D01*
X82095238Y-53861904D01*
X82190476Y-53814285D01*
X82380952Y-53766666D01*
X82523809Y-53766666D01*
X82714285Y-53814285D01*
X82809523Y-53861904D01*
X82904761Y-53957142D01*
X82952380Y-54100000D01*
X82952380Y-54338095D01*
X82952380Y-52814285D02*
X82952380Y-53385714D01*
X82952380Y-53100000D02*
X81952380Y-53100000D01*
X82095238Y-53195238D01*
X82190476Y-53290476D01*
X82238095Y-53385714D01*
X80902380Y-58046904D02*
X79902380Y-58046904D01*
X80902380Y-57475476D02*
X80330952Y-57904047D01*
X79902380Y-57475476D02*
X80473809Y-58046904D01*
%TO.C,R2*%
X74052380Y-64866666D02*
X73576190Y-65200000D01*
X74052380Y-65438095D02*
X73052380Y-65438095D01*
X73052380Y-65057142D01*
X73100000Y-64961904D01*
X73147619Y-64914285D01*
X73242857Y-64866666D01*
X73385714Y-64866666D01*
X73480952Y-64914285D01*
X73528571Y-64961904D01*
X73576190Y-65057142D01*
X73576190Y-65438095D01*
X73147619Y-64485714D02*
X73100000Y-64438095D01*
X73052380Y-64342857D01*
X73052380Y-64104761D01*
X73100000Y-64009523D01*
X73147619Y-63961904D01*
X73242857Y-63914285D01*
X73338095Y-63914285D01*
X73480952Y-63961904D01*
X74052380Y-64533333D01*
X74052380Y-63914285D01*
%TO.C,R4*%
X79852380Y-64966666D02*
X79376190Y-65300000D01*
X79852380Y-65538095D02*
X78852380Y-65538095D01*
X78852380Y-65157142D01*
X78900000Y-65061904D01*
X78947619Y-65014285D01*
X79042857Y-64966666D01*
X79185714Y-64966666D01*
X79280952Y-65014285D01*
X79328571Y-65061904D01*
X79376190Y-65157142D01*
X79376190Y-65538095D01*
X79185714Y-64109523D02*
X79852380Y-64109523D01*
X78804761Y-64347619D02*
X79519047Y-64585714D01*
X79519047Y-63966666D01*
%TO.C,U1*%
X88738095Y-78152380D02*
X88738095Y-78961904D01*
X88785714Y-79057142D01*
X88833333Y-79104761D01*
X88928571Y-79152380D01*
X89119047Y-79152380D01*
X89214285Y-79104761D01*
X89261904Y-79057142D01*
X89309523Y-78961904D01*
X89309523Y-78152380D01*
X90309523Y-79152380D02*
X89738095Y-79152380D01*
X90023809Y-79152380D02*
X90023809Y-78152380D01*
X89928571Y-78295238D01*
X89833333Y-78390476D01*
X89738095Y-78438095D01*
%TO.C,R7*%
X52952380Y-63866666D02*
X52476190Y-64200000D01*
X52952380Y-64438095D02*
X51952380Y-64438095D01*
X51952380Y-64057142D01*
X52000000Y-63961904D01*
X52047619Y-63914285D01*
X52142857Y-63866666D01*
X52285714Y-63866666D01*
X52380952Y-63914285D01*
X52428571Y-63961904D01*
X52476190Y-64057142D01*
X52476190Y-64438095D01*
X51952380Y-63533333D02*
X51952380Y-62866666D01*
X52952380Y-63295238D01*
%TO.C,C1*%
X49257142Y-74461666D02*
X49304761Y-74509285D01*
X49352380Y-74652142D01*
X49352380Y-74747380D01*
X49304761Y-74890238D01*
X49209523Y-74985476D01*
X49114285Y-75033095D01*
X48923809Y-75080714D01*
X48780952Y-75080714D01*
X48590476Y-75033095D01*
X48495238Y-74985476D01*
X48400000Y-74890238D01*
X48352380Y-74747380D01*
X48352380Y-74652142D01*
X48400000Y-74509285D01*
X48447619Y-74461666D01*
X49352380Y-73509285D02*
X49352380Y-74080714D01*
X49352380Y-73795000D02*
X48352380Y-73795000D01*
X48495238Y-73890238D01*
X48590476Y-73985476D01*
X48638095Y-74080714D01*
%TO.C,U3*%
X36457380Y-52196904D02*
X37266904Y-52196904D01*
X37362142Y-52149285D01*
X37409761Y-52101666D01*
X37457380Y-52006428D01*
X37457380Y-51815952D01*
X37409761Y-51720714D01*
X37362142Y-51673095D01*
X37266904Y-51625476D01*
X36457380Y-51625476D01*
X36457380Y-51244523D02*
X36457380Y-50625476D01*
X36838333Y-50958809D01*
X36838333Y-50815952D01*
X36885952Y-50720714D01*
X36933571Y-50673095D01*
X37028809Y-50625476D01*
X37266904Y-50625476D01*
X37362142Y-50673095D01*
X37409761Y-50720714D01*
X37457380Y-50815952D01*
X37457380Y-51101666D01*
X37409761Y-51196904D01*
X37362142Y-51244523D01*
%TO.C,R5*%
X71652380Y-64936666D02*
X71176190Y-65270000D01*
X71652380Y-65508095D02*
X70652380Y-65508095D01*
X70652380Y-65127142D01*
X70700000Y-65031904D01*
X70747619Y-64984285D01*
X70842857Y-64936666D01*
X70985714Y-64936666D01*
X71080952Y-64984285D01*
X71128571Y-65031904D01*
X71176190Y-65127142D01*
X71176190Y-65508095D01*
X70652380Y-64031904D02*
X70652380Y-64508095D01*
X71128571Y-64555714D01*
X71080952Y-64508095D01*
X71033333Y-64412857D01*
X71033333Y-64174761D01*
X71080952Y-64079523D01*
X71128571Y-64031904D01*
X71223809Y-63984285D01*
X71461904Y-63984285D01*
X71557142Y-64031904D01*
X71604761Y-64079523D01*
X71652380Y-64174761D01*
X71652380Y-64412857D01*
X71604761Y-64508095D01*
X71557142Y-64555714D01*
%TO.C,C7*%
X81507142Y-95721779D02*
X81554761Y-95769398D01*
X81602380Y-95912255D01*
X81602380Y-96007493D01*
X81554761Y-96150351D01*
X81459523Y-96245589D01*
X81364285Y-96293208D01*
X81173809Y-96340827D01*
X81030952Y-96340827D01*
X80840476Y-96293208D01*
X80745238Y-96245589D01*
X80650000Y-96150351D01*
X80602380Y-96007493D01*
X80602380Y-95912255D01*
X80650000Y-95769398D01*
X80697619Y-95721779D01*
X80602380Y-95388446D02*
X80602380Y-94721779D01*
X81602380Y-95150351D01*
%TO.C,R10*%
X92857142Y-55152380D02*
X92523809Y-54676190D01*
X92285714Y-55152380D02*
X92285714Y-54152380D01*
X92666666Y-54152380D01*
X92761904Y-54200000D01*
X92809523Y-54247619D01*
X92857142Y-54342857D01*
X92857142Y-54485714D01*
X92809523Y-54580952D01*
X92761904Y-54628571D01*
X92666666Y-54676190D01*
X92285714Y-54676190D01*
X93809523Y-55152380D02*
X93238095Y-55152380D01*
X93523809Y-55152380D02*
X93523809Y-54152380D01*
X93428571Y-54295238D01*
X93333333Y-54390476D01*
X93238095Y-54438095D01*
X94428571Y-54152380D02*
X94523809Y-54152380D01*
X94619047Y-54200000D01*
X94666666Y-54247619D01*
X94714285Y-54342857D01*
X94761904Y-54533333D01*
X94761904Y-54771428D01*
X94714285Y-54961904D01*
X94666666Y-55057142D01*
X94619047Y-55104761D01*
X94523809Y-55152380D01*
X94428571Y-55152380D01*
X94333333Y-55104761D01*
X94285714Y-55057142D01*
X94238095Y-54961904D01*
X94190476Y-54771428D01*
X94190476Y-54533333D01*
X94238095Y-54342857D01*
X94285714Y-54247619D01*
X94333333Y-54200000D01*
X94428571Y-54152380D01*
%TO.C,R3*%
X67852380Y-64936666D02*
X67376190Y-65270000D01*
X67852380Y-65508095D02*
X66852380Y-65508095D01*
X66852380Y-65127142D01*
X66900000Y-65031904D01*
X66947619Y-64984285D01*
X67042857Y-64936666D01*
X67185714Y-64936666D01*
X67280952Y-64984285D01*
X67328571Y-65031904D01*
X67376190Y-65127142D01*
X67376190Y-65508095D01*
X66852380Y-64603333D02*
X66852380Y-63984285D01*
X67233333Y-64317619D01*
X67233333Y-64174761D01*
X67280952Y-64079523D01*
X67328571Y-64031904D01*
X67423809Y-63984285D01*
X67661904Y-63984285D01*
X67757142Y-64031904D01*
X67804761Y-64079523D01*
X67852380Y-64174761D01*
X67852380Y-64460476D01*
X67804761Y-64555714D01*
X67757142Y-64603333D01*
%TO.C,D3*%
X67752380Y-54338095D02*
X66752380Y-54338095D01*
X66752380Y-54100000D01*
X66800000Y-53957142D01*
X66895238Y-53861904D01*
X66990476Y-53814285D01*
X67180952Y-53766666D01*
X67323809Y-53766666D01*
X67514285Y-53814285D01*
X67609523Y-53861904D01*
X67704761Y-53957142D01*
X67752380Y-54100000D01*
X67752380Y-54338095D01*
X66752380Y-53433333D02*
X66752380Y-52814285D01*
X67133333Y-53147619D01*
X67133333Y-53004761D01*
X67180952Y-52909523D01*
X67228571Y-52861904D01*
X67323809Y-52814285D01*
X67561904Y-52814285D01*
X67657142Y-52861904D01*
X67704761Y-52909523D01*
X67752380Y-53004761D01*
X67752380Y-53290476D01*
X67704761Y-53385714D01*
X67657142Y-53433333D01*
X65662380Y-58046904D02*
X64662380Y-58046904D01*
X65662380Y-57475476D02*
X65090952Y-57904047D01*
X64662380Y-57475476D02*
X65233809Y-58046904D01*
%TO.C,C6*%
X55662142Y-58541779D02*
X55709761Y-58589398D01*
X55757380Y-58732255D01*
X55757380Y-58827493D01*
X55709761Y-58970351D01*
X55614523Y-59065589D01*
X55519285Y-59113208D01*
X55328809Y-59160827D01*
X55185952Y-59160827D01*
X54995476Y-59113208D01*
X54900238Y-59065589D01*
X54805000Y-58970351D01*
X54757380Y-58827493D01*
X54757380Y-58732255D01*
X54805000Y-58589398D01*
X54852619Y-58541779D01*
X54757380Y-57684636D02*
X54757380Y-57875113D01*
X54805000Y-57970351D01*
X54852619Y-58017970D01*
X54995476Y-58113208D01*
X55185952Y-58160827D01*
X55566904Y-58160827D01*
X55662142Y-58113208D01*
X55709761Y-58065589D01*
X55757380Y-57970351D01*
X55757380Y-57779874D01*
X55709761Y-57684636D01*
X55662142Y-57637017D01*
X55566904Y-57589398D01*
X55328809Y-57589398D01*
X55233571Y-57637017D01*
X55185952Y-57684636D01*
X55138333Y-57779874D01*
X55138333Y-57970351D01*
X55185952Y-58065589D01*
X55233571Y-58113208D01*
X55328809Y-58160827D01*
%TO.C,C5*%
X49257142Y-52266666D02*
X49304761Y-52314285D01*
X49352380Y-52457142D01*
X49352380Y-52552380D01*
X49304761Y-52695238D01*
X49209523Y-52790476D01*
X49114285Y-52838095D01*
X48923809Y-52885714D01*
X48780952Y-52885714D01*
X48590476Y-52838095D01*
X48495238Y-52790476D01*
X48400000Y-52695238D01*
X48352380Y-52552380D01*
X48352380Y-52457142D01*
X48400000Y-52314285D01*
X48447619Y-52266666D01*
X48352380Y-51361904D02*
X48352380Y-51838095D01*
X48828571Y-51885714D01*
X48780952Y-51838095D01*
X48733333Y-51742857D01*
X48733333Y-51504761D01*
X48780952Y-51409523D01*
X48828571Y-51361904D01*
X48923809Y-51314285D01*
X49161904Y-51314285D01*
X49257142Y-51361904D01*
X49304761Y-51409523D01*
X49352380Y-51504761D01*
X49352380Y-51742857D01*
X49304761Y-51838095D01*
X49257142Y-51885714D01*
%TO.C,C4*%
X53757142Y-52236666D02*
X53804761Y-52284285D01*
X53852380Y-52427142D01*
X53852380Y-52522380D01*
X53804761Y-52665238D01*
X53709523Y-52760476D01*
X53614285Y-52808095D01*
X53423809Y-52855714D01*
X53280952Y-52855714D01*
X53090476Y-52808095D01*
X52995238Y-52760476D01*
X52900000Y-52665238D01*
X52852380Y-52522380D01*
X52852380Y-52427142D01*
X52900000Y-52284285D01*
X52947619Y-52236666D01*
X53185714Y-51379523D02*
X53852380Y-51379523D01*
X52804761Y-51617619D02*
X53519047Y-51855714D01*
X53519047Y-51236666D01*
D12*
%TO.C,U5*%
X100640000Y-108730000D02*
X100640000Y-98450000D01*
X100640000Y-98450000D02*
X95340000Y-98450000D01*
X98990000Y-108730000D02*
X100640000Y-108730000D01*
X95340000Y-108730000D02*
X96990000Y-108730000D01*
X95340000Y-98450000D02*
X95340000Y-108730000D01*
X98990000Y-108730000D02*
G75*
G03*
X96990000Y-108730000I-1000000J0D01*
G01*
%TO.C,U4*%
X73880000Y-97350000D02*
X76420000Y-97350000D01*
X76420000Y-97350000D02*
X76420000Y-94683000D01*
X73880000Y-94683000D02*
X35653000Y-94683000D01*
X79087000Y-94683000D02*
X76420000Y-94683000D01*
X76420000Y-110050000D02*
X76420000Y-112720000D01*
X76420000Y-110050000D02*
X38320000Y-110050000D01*
X38320000Y-110050000D02*
X38320000Y-112720000D01*
X73880000Y-97350000D02*
X73880000Y-94683000D01*
X73880000Y-97350000D02*
X38320000Y-97350000D01*
X38320000Y-97350000D02*
X38320000Y-94680000D01*
X35653000Y-94683000D02*
X35653000Y-99763000D01*
X35653000Y-112717000D02*
X79087000Y-112717000D01*
X79087000Y-112717000D02*
X79087000Y-94683000D01*
X33113000Y-99763000D02*
X35653000Y-99763000D01*
X35653000Y-107637000D02*
X35653000Y-112717000D01*
X33113000Y-107637000D02*
X35653000Y-107637000D01*
X33113000Y-99763000D02*
X33113000Y-107637000D01*
%TO.C,J1*%
X102295000Y-72380000D02*
X102295000Y-52000000D01*
X102295000Y-73650000D02*
X102295000Y-74980000D01*
X102295000Y-74980000D02*
X100965000Y-74980000D01*
X102295000Y-52000000D02*
X99635000Y-52000000D01*
X99635000Y-72380000D02*
X99635000Y-52000000D01*
X102295000Y-72380000D02*
X99635000Y-72380000D01*
%TO.C,R1*%
X76835000Y-67640000D02*
X76835000Y-66690000D01*
X75915000Y-66690000D02*
X77755000Y-66690000D01*
X77755000Y-62850000D02*
X75915000Y-62850000D01*
X76835000Y-61900000D02*
X76835000Y-62850000D01*
X75915000Y-62850000D02*
X75915000Y-66690000D01*
X77755000Y-66690000D02*
X77755000Y-62850000D01*
%TO.C,R6*%
X64770000Y-67640000D02*
X64770000Y-66690000D01*
X63850000Y-62850000D02*
X63850000Y-66690000D01*
X65690000Y-62850000D02*
X63850000Y-62850000D01*
X63850000Y-66690000D02*
X65690000Y-66690000D01*
X65690000Y-66690000D02*
X65690000Y-62850000D01*
X64770000Y-61900000D02*
X64770000Y-62850000D01*
%TO.C,C2*%
X58650000Y-51800000D02*
X57110000Y-51800000D01*
X58650000Y-52360000D02*
X57170000Y-52360000D01*
X58650000Y-52961000D02*
X57380000Y-52961000D01*
X62145000Y-52601000D02*
X60730000Y-52601000D01*
X62269000Y-51880000D02*
X60730000Y-51880000D01*
X58650000Y-52761000D02*
X57292000Y-52761000D01*
X62240000Y-52200000D02*
X60730000Y-52200000D01*
X61165000Y-48995225D02*
X61165000Y-49495225D01*
X58650000Y-52601000D02*
X57235000Y-52601000D01*
X58650000Y-53401000D02*
X57655000Y-53401000D01*
X61958000Y-53041000D02*
X60730000Y-53041000D01*
X58650000Y-52200000D02*
X57140000Y-52200000D01*
X61009000Y-54041000D02*
X58371000Y-54041000D01*
X61433000Y-53721000D02*
X60730000Y-53721000D01*
X58650000Y-53121000D02*
X57466000Y-53121000D01*
X60495000Y-54281000D02*
X58885000Y-54281000D01*
X62251000Y-52120000D02*
X60730000Y-52120000D01*
X58650000Y-52921000D02*
X57361000Y-52921000D01*
X62132000Y-52641000D02*
X60730000Y-52641000D01*
X61475000Y-53681000D02*
X60730000Y-53681000D01*
X62072000Y-52801000D02*
X60730000Y-52801000D01*
X61937000Y-53081000D02*
X60730000Y-53081000D01*
X58650000Y-52280000D02*
X57154000Y-52280000D01*
X62088000Y-52761000D02*
X60730000Y-52761000D01*
X58650000Y-52841000D02*
X57325000Y-52841000D01*
X62268000Y-51920000D02*
X60730000Y-51920000D01*
X58650000Y-53441000D02*
X57686000Y-53441000D01*
X61516000Y-53641000D02*
X60730000Y-53641000D01*
X58650000Y-53361000D02*
X57625000Y-53361000D01*
X60788000Y-54161000D02*
X58592000Y-54161000D01*
X61914000Y-53121000D02*
X60730000Y-53121000D01*
X61343000Y-53801000D02*
X60730000Y-53801000D01*
X61591000Y-53561000D02*
X60730000Y-53561000D01*
X58650000Y-52480000D02*
X57199000Y-52480000D01*
X58650000Y-52721000D02*
X57276000Y-52721000D01*
X60367000Y-54321000D02*
X59013000Y-54321000D01*
X58650000Y-52440000D02*
X57189000Y-52440000D01*
X58650000Y-53041000D02*
X57422000Y-53041000D01*
X61244000Y-53881000D02*
X58136000Y-53881000D01*
X60941000Y-54081000D02*
X58439000Y-54081000D01*
X62259000Y-52040000D02*
X60730000Y-52040000D01*
X61812000Y-53281000D02*
X60730000Y-53281000D01*
X62218000Y-52320000D02*
X60730000Y-52320000D01*
X58650000Y-53761000D02*
X57991000Y-53761000D01*
X58650000Y-53281000D02*
X57568000Y-53281000D01*
X62255000Y-52080000D02*
X60730000Y-52080000D01*
X61190000Y-53921000D02*
X58190000Y-53921000D01*
X62038000Y-52881000D02*
X60730000Y-52881000D01*
X61839000Y-53241000D02*
X60730000Y-53241000D01*
X62181000Y-52480000D02*
X60730000Y-52480000D01*
X58650000Y-53161000D02*
X57490000Y-53161000D01*
X58650000Y-53001000D02*
X57400000Y-53001000D01*
X58650000Y-53481000D02*
X57719000Y-53481000D01*
X58650000Y-52000000D02*
X57117000Y-52000000D01*
X58650000Y-53601000D02*
X57826000Y-53601000D01*
X58650000Y-53321000D02*
X57595000Y-53321000D01*
X58650000Y-52160000D02*
X57134000Y-52160000D01*
X62118000Y-52681000D02*
X60730000Y-52681000D01*
X58650000Y-52400000D02*
X57179000Y-52400000D01*
X58650000Y-53561000D02*
X57789000Y-53561000D01*
X58650000Y-53721000D02*
X57947000Y-53721000D01*
X61389000Y-53761000D02*
X60730000Y-53761000D01*
X58650000Y-53081000D02*
X57443000Y-53081000D01*
X62019000Y-52921000D02*
X60730000Y-52921000D01*
X62000000Y-52961000D02*
X60730000Y-52961000D01*
X61627000Y-53521000D02*
X60730000Y-53521000D01*
X61865000Y-53201000D02*
X60730000Y-53201000D01*
X61785000Y-53321000D02*
X60730000Y-53321000D01*
X62170000Y-52521000D02*
X60730000Y-52521000D01*
X61755000Y-53361000D02*
X60730000Y-53361000D01*
X58650000Y-52120000D02*
X57129000Y-52120000D01*
X58650000Y-53521000D02*
X57753000Y-53521000D01*
X58650000Y-52240000D02*
X57147000Y-52240000D01*
X58650000Y-52521000D02*
X57210000Y-52521000D01*
X58650000Y-52681000D02*
X57262000Y-52681000D01*
X62270000Y-51840000D02*
X60730000Y-51840000D01*
X62191000Y-52440000D02*
X60730000Y-52440000D01*
X62158000Y-52561000D02*
X60730000Y-52561000D01*
X62233000Y-52240000D02*
X60730000Y-52240000D01*
X58650000Y-51920000D02*
X57112000Y-51920000D01*
X62104000Y-52721000D02*
X60730000Y-52721000D01*
X58650000Y-53801000D02*
X58037000Y-53801000D01*
X58650000Y-52320000D02*
X57162000Y-52320000D01*
X58650000Y-53681000D02*
X57905000Y-53681000D01*
X62266000Y-51960000D02*
X60730000Y-51960000D01*
X58650000Y-51840000D02*
X57110000Y-51840000D01*
X58650000Y-51960000D02*
X57114000Y-51960000D01*
X58650000Y-52641000D02*
X57248000Y-52641000D01*
X58650000Y-53201000D02*
X57515000Y-53201000D01*
X61980000Y-53001000D02*
X60730000Y-53001000D01*
X60208000Y-54361000D02*
X59172000Y-54361000D01*
X58650000Y-52561000D02*
X57222000Y-52561000D01*
X62055000Y-52841000D02*
X60730000Y-52841000D01*
X62210000Y-52360000D02*
X60730000Y-52360000D01*
X61073000Y-54001000D02*
X58307000Y-54001000D01*
X61725000Y-53401000D02*
X60730000Y-53401000D01*
X61694000Y-53441000D02*
X60730000Y-53441000D01*
X60701000Y-54201000D02*
X58679000Y-54201000D01*
X58650000Y-53641000D02*
X57864000Y-53641000D01*
X61554000Y-53601000D02*
X60730000Y-53601000D01*
X59974000Y-54401000D02*
X59406000Y-54401000D01*
X61890000Y-53161000D02*
X60730000Y-53161000D01*
X58650000Y-52080000D02*
X57125000Y-52080000D01*
X61133000Y-53961000D02*
X58247000Y-53961000D01*
X58650000Y-51880000D02*
X57111000Y-51880000D01*
X62270000Y-51800000D02*
X60730000Y-51800000D01*
X62201000Y-52400000D02*
X60730000Y-52400000D01*
X62226000Y-52280000D02*
X60730000Y-52280000D01*
X58650000Y-52881000D02*
X57342000Y-52881000D01*
X61415000Y-49245225D02*
X60915000Y-49245225D01*
X62263000Y-52000000D02*
X60730000Y-52000000D01*
X58650000Y-52040000D02*
X57121000Y-52040000D01*
X61295000Y-53841000D02*
X58085000Y-53841000D01*
X60868000Y-54121000D02*
X58512000Y-54121000D01*
X61661000Y-53481000D02*
X60730000Y-53481000D01*
X60605000Y-54241000D02*
X58775000Y-54241000D01*
X58650000Y-52801000D02*
X57308000Y-52801000D01*
X62246000Y-52160000D02*
X60730000Y-52160000D01*
X58650000Y-53241000D02*
X57541000Y-53241000D01*
X62310000Y-51800000D02*
G75*
G03*
X62310000Y-51800000I-2620000J0D01*
G01*
%TO.C,U2*%
X38315000Y-74890000D02*
X42956000Y-74890000D01*
X38315000Y-78159000D02*
X39825000Y-78159000D01*
X38315000Y-85130000D02*
X38315000Y-74890000D01*
X39825000Y-85130000D02*
X39825000Y-74890000D01*
X38315000Y-81860000D02*
X39825000Y-81860000D01*
X38315000Y-85130000D02*
X42956000Y-85130000D01*
X42956000Y-85130000D02*
X42956000Y-74890000D01*
%TO.C,R9*%
X95265000Y-61310000D02*
X91425000Y-61310000D01*
X91425000Y-61310000D02*
X91425000Y-63150000D01*
X96215000Y-62230000D02*
X95265000Y-62230000D01*
X90475000Y-62230000D02*
X91425000Y-62230000D01*
X95265000Y-63150000D02*
X95265000Y-61310000D01*
X91425000Y-63150000D02*
X95265000Y-63150000D01*
%TO.C,R8*%
X95265000Y-70770000D02*
X95265000Y-68930000D01*
X91425000Y-70770000D02*
X95265000Y-70770000D01*
X96215000Y-69850000D02*
X95265000Y-69850000D01*
X91425000Y-68930000D02*
X91425000Y-70770000D01*
X95265000Y-68930000D02*
X91425000Y-68930000D01*
X90475000Y-69850000D02*
X91425000Y-69850000D01*
%TO.C,C3*%
X49965000Y-84185000D02*
X49965000Y-79645000D01*
X47825000Y-84185000D02*
X47825000Y-79645000D01*
X47825000Y-79645000D02*
X47840000Y-79645000D01*
X49950000Y-84185000D02*
X49965000Y-84185000D01*
X47825000Y-84185000D02*
X47840000Y-84185000D01*
X49950000Y-79645000D02*
X49965000Y-79645000D01*
D13*
%TO.C,J2*%
X79756000Y-82677000D02*
X54610000Y-82677000D01*
X54610000Y-73533000D02*
X54610000Y-74295000D01*
X80010000Y-82677000D02*
X79756000Y-82677000D01*
X54610000Y-73533000D02*
X79756000Y-73533000D01*
X79756000Y-81661000D02*
X54610000Y-81661000D01*
X54610000Y-82677000D02*
X54610000Y-81661000D01*
X80010000Y-81661000D02*
X79756000Y-81661000D01*
X80010000Y-73533000D02*
X79756000Y-73533000D01*
X80010000Y-73533000D02*
X80010000Y-82677000D01*
X54610000Y-81915000D02*
X54610000Y-74295000D01*
D12*
%TO.C,Q1*%
X37820000Y-57705000D02*
X37820000Y-73845000D01*
X43091000Y-57705000D02*
X43091000Y-73845000D01*
X43091000Y-67580000D02*
X37820000Y-67580000D01*
X43091000Y-73845000D02*
X37820000Y-73845000D01*
X43091000Y-63971000D02*
X37820000Y-63971000D01*
X43091000Y-57705000D02*
X37820000Y-57705000D01*
%TO.C,D2*%
X76270000Y-56695000D02*
X76400000Y-56695000D01*
X76400000Y-51255000D02*
X76270000Y-51255000D01*
X73590000Y-56695000D02*
X73460000Y-56695000D01*
X73460000Y-56695000D02*
X73460000Y-51255000D01*
X76400000Y-56695000D02*
X76400000Y-51255000D01*
X73460000Y-51255000D02*
X73590000Y-51255000D01*
X73460000Y-55915000D02*
X76400000Y-55915000D01*
X73460000Y-55795000D02*
X76400000Y-55795000D01*
X73460000Y-55675000D02*
X76400000Y-55675000D01*
%TO.C,D1*%
X81210000Y-56695000D02*
X81080000Y-56695000D01*
X81080000Y-56695000D02*
X81080000Y-51255000D01*
X81080000Y-55795000D02*
X84020000Y-55795000D01*
X83890000Y-56695000D02*
X84020000Y-56695000D01*
X84020000Y-51255000D02*
X83890000Y-51255000D01*
X84020000Y-56695000D02*
X84020000Y-51255000D01*
X81080000Y-55675000D02*
X84020000Y-55675000D01*
X81080000Y-51255000D02*
X81210000Y-51255000D01*
X81080000Y-55915000D02*
X84020000Y-55915000D01*
%TO.C,R2*%
X73660000Y-67640000D02*
X73660000Y-66690000D01*
X72740000Y-66690000D02*
X74580000Y-66690000D01*
X74580000Y-66690000D02*
X74580000Y-62850000D01*
X74580000Y-62850000D02*
X72740000Y-62850000D01*
X73660000Y-61900000D02*
X73660000Y-62850000D01*
X72740000Y-62850000D02*
X72740000Y-66690000D01*
%TO.C,R4*%
X78455000Y-62850000D02*
X78455000Y-66690000D01*
X79375000Y-61900000D02*
X79375000Y-62850000D01*
X78455000Y-66690000D02*
X80295000Y-66690000D01*
X79375000Y-67640000D02*
X79375000Y-66690000D01*
X80295000Y-62850000D02*
X78455000Y-62850000D01*
X80295000Y-66690000D02*
X80295000Y-62850000D01*
%TO.C,U1*%
X86875000Y-83870000D02*
X88525000Y-83870000D01*
X92175000Y-83870000D02*
X92175000Y-73590000D01*
X92175000Y-73590000D02*
X86875000Y-73590000D01*
X86875000Y-73590000D02*
X86875000Y-83870000D01*
X90525000Y-83870000D02*
X92175000Y-83870000D01*
X90525000Y-83870000D02*
G75*
G03*
X88525000Y-83870000I-1000000J0D01*
G01*
%TO.C,R7*%
X50165000Y-64915000D02*
X50165000Y-65175000D01*
X46845000Y-58275000D02*
X46845000Y-64915000D01*
X53485000Y-58275000D02*
X46845000Y-58275000D01*
X46845000Y-64915000D02*
X53485000Y-64915000D01*
X53485000Y-64915000D02*
X53485000Y-58275000D01*
%TO.C,C1*%
X49965000Y-76565000D02*
X49950000Y-76565000D01*
X47840000Y-72025000D02*
X47825000Y-72025000D01*
X49965000Y-72025000D02*
X49965000Y-76565000D01*
X49965000Y-72025000D02*
X49950000Y-72025000D01*
X47840000Y-76565000D02*
X47825000Y-76565000D01*
X47825000Y-72025000D02*
X47825000Y-76565000D01*
%TO.C,U3*%
X38005000Y-56555000D02*
X38005000Y-46315000D01*
X38005000Y-56555000D02*
X42646000Y-56555000D01*
X38005000Y-46315000D02*
X42646000Y-46315000D01*
X38005000Y-53285000D02*
X39515000Y-53285000D01*
X38005000Y-49584000D02*
X39515000Y-49584000D01*
X42646000Y-56555000D02*
X42646000Y-46315000D01*
X39515000Y-56555000D02*
X39515000Y-46315000D01*
%TO.C,R5*%
X70200000Y-62850000D02*
X70200000Y-66690000D01*
X71120000Y-61900000D02*
X71120000Y-62850000D01*
X72040000Y-66690000D02*
X72040000Y-62850000D01*
X72040000Y-62850000D02*
X70200000Y-62850000D01*
X71120000Y-67640000D02*
X71120000Y-66690000D01*
X70200000Y-66690000D02*
X72040000Y-66690000D01*
%TO.C,C7*%
X85940000Y-93754113D02*
X86764000Y-93754113D01*
X82700000Y-94194113D02*
X83860000Y-94194113D01*
X82357000Y-95115113D02*
X83860000Y-95115113D01*
X85940000Y-93394113D02*
X86343000Y-93394113D01*
X82610000Y-94354113D02*
X83860000Y-94354113D01*
X84616000Y-92954113D02*
X85184000Y-92954113D01*
X82552000Y-94474113D02*
X83860000Y-94474113D01*
X82865000Y-93954113D02*
X83860000Y-93954113D01*
X82372000Y-95035113D02*
X83860000Y-95035113D01*
X85940000Y-93434113D02*
X86400000Y-93434113D01*
X85940000Y-93794113D02*
X86801000Y-93794113D01*
X83649000Y-93274113D02*
X83860000Y-93274113D01*
X82320000Y-95555113D02*
X87480000Y-95555113D01*
X85940000Y-95235113D02*
X87461000Y-95235113D01*
X82676000Y-94234113D02*
X83860000Y-94234113D01*
X82472000Y-94674113D02*
X83860000Y-94674113D01*
X85940000Y-94154113D02*
X87075000Y-94154113D01*
X83722000Y-93234113D02*
X86078000Y-93234113D01*
X83457000Y-93394113D02*
X83860000Y-93394113D01*
X82420000Y-94834113D02*
X83860000Y-94834113D01*
X83889000Y-93154113D02*
X85911000Y-93154113D01*
X82399000Y-94915113D02*
X83860000Y-94915113D01*
X82963000Y-93834113D02*
X83860000Y-93834113D01*
X85940000Y-93474113D02*
X86454000Y-93474113D01*
X84223000Y-93034113D02*
X85577000Y-93034113D01*
X85940000Y-93274113D02*
X86151000Y-93274113D01*
X82335000Y-95275113D02*
X83860000Y-95275113D01*
X82502000Y-94594113D02*
X83860000Y-94594113D01*
X83581000Y-93314113D02*
X83860000Y-93314113D01*
X82321000Y-95475113D02*
X87479000Y-95475113D01*
X85940000Y-94674113D02*
X87328000Y-94674113D01*
X83036000Y-93754113D02*
X83860000Y-93754113D01*
X82929000Y-93874113D02*
X83860000Y-93874113D01*
X85940000Y-94394113D02*
X87210000Y-94394113D01*
X83175000Y-98109888D02*
X83675000Y-98109888D01*
X85940000Y-95115113D02*
X87443000Y-95115113D01*
X85940000Y-94834113D02*
X87380000Y-94834113D01*
X82324000Y-95395113D02*
X87476000Y-95395113D01*
X85940000Y-95075113D02*
X87436000Y-95075113D01*
X82322000Y-95435113D02*
X87478000Y-95435113D01*
X83295000Y-93514113D02*
X83860000Y-93514113D01*
X85940000Y-95035113D02*
X87428000Y-95035113D01*
X85940000Y-93954113D02*
X86935000Y-93954113D01*
X85940000Y-93634113D02*
X86643000Y-93634113D01*
X85940000Y-93994113D02*
X86965000Y-93994113D01*
X85940000Y-95155113D02*
X87450000Y-95155113D01*
X82350000Y-95155113D02*
X83860000Y-95155113D01*
X85940000Y-94074113D02*
X87022000Y-94074113D01*
X85940000Y-94754113D02*
X87355000Y-94754113D01*
X82725000Y-94154113D02*
X83860000Y-94154113D01*
X83802000Y-93194113D02*
X85998000Y-93194113D01*
X85940000Y-93314113D02*
X86219000Y-93314113D01*
X82571000Y-94434113D02*
X83860000Y-94434113D01*
X85940000Y-93674113D02*
X86685000Y-93674113D01*
X85940000Y-93354113D02*
X86283000Y-93354113D01*
X85940000Y-94474113D02*
X87248000Y-94474113D01*
X82409000Y-94875113D02*
X83860000Y-94875113D01*
X85940000Y-94554113D02*
X87282000Y-94554113D01*
X85940000Y-93834113D02*
X86837000Y-93834113D01*
X83346000Y-93474113D02*
X83860000Y-93474113D01*
X82835000Y-93994113D02*
X83860000Y-93994113D01*
X85940000Y-94274113D02*
X87147000Y-94274113D01*
X85940000Y-94995113D02*
X87420000Y-94995113D01*
X85940000Y-94354113D02*
X87190000Y-94354113D01*
X85940000Y-93594113D02*
X86599000Y-93594113D01*
X85940000Y-93554113D02*
X86553000Y-93554113D01*
X85940000Y-94434113D02*
X87229000Y-94434113D01*
X82653000Y-94274113D02*
X83860000Y-94274113D01*
X83247000Y-93554113D02*
X83860000Y-93554113D01*
X82805000Y-94034113D02*
X83860000Y-94034113D01*
X82339000Y-95235113D02*
X83860000Y-95235113D01*
X82896000Y-93914113D02*
X83860000Y-93914113D01*
X82778000Y-94074113D02*
X83860000Y-94074113D01*
X85940000Y-93714113D02*
X86726000Y-93714113D01*
X82518000Y-94554113D02*
X83860000Y-94554113D01*
X82535000Y-94514113D02*
X83860000Y-94514113D01*
X82486000Y-94634113D02*
X83860000Y-94634113D01*
X84095000Y-93074113D02*
X85705000Y-93074113D01*
X82380000Y-94995113D02*
X83860000Y-94995113D01*
X83985000Y-93114113D02*
X85815000Y-93114113D01*
X82590000Y-94394113D02*
X83860000Y-94394113D01*
X85940000Y-93514113D02*
X86505000Y-93514113D01*
X82344000Y-95195113D02*
X83860000Y-95195113D01*
X85940000Y-95315113D02*
X87469000Y-95315113D01*
X85940000Y-93874113D02*
X86871000Y-93874113D01*
X85940000Y-94875113D02*
X87391000Y-94875113D01*
X82389000Y-94955113D02*
X83860000Y-94955113D01*
X85940000Y-94634113D02*
X87314000Y-94634113D01*
X83400000Y-93434113D02*
X83860000Y-93434113D01*
X83115000Y-93674113D02*
X83860000Y-93674113D01*
X83074000Y-93714113D02*
X83860000Y-93714113D01*
X85940000Y-93914113D02*
X86904000Y-93914113D01*
X82445000Y-94754113D02*
X83860000Y-94754113D01*
X85940000Y-94594113D02*
X87298000Y-94594113D01*
X84382000Y-92994113D02*
X85418000Y-92994113D01*
X83157000Y-93634113D02*
X83860000Y-93634113D01*
X85940000Y-94194113D02*
X87100000Y-94194113D01*
X82751000Y-94114113D02*
X83860000Y-94114113D01*
X82364000Y-95075113D02*
X83860000Y-95075113D01*
X85940000Y-94915113D02*
X87401000Y-94915113D01*
X82331000Y-95315113D02*
X83860000Y-95315113D01*
X83201000Y-93594113D02*
X83860000Y-93594113D01*
X85940000Y-95275113D02*
X87465000Y-95275113D01*
X85940000Y-94234113D02*
X87124000Y-94234113D01*
X85940000Y-94114113D02*
X87049000Y-94114113D01*
X83517000Y-93354113D02*
X83860000Y-93354113D01*
X85940000Y-94314113D02*
X87168000Y-94314113D01*
X85940000Y-94955113D02*
X87411000Y-94955113D01*
X82320000Y-95515113D02*
X87480000Y-95515113D01*
X85940000Y-94514113D02*
X87265000Y-94514113D01*
X82999000Y-93794113D02*
X83860000Y-93794113D01*
X85940000Y-94034113D02*
X86995000Y-94034113D01*
X82432000Y-94794113D02*
X83860000Y-94794113D01*
X82327000Y-95355113D02*
X87473000Y-95355113D01*
X82458000Y-94714113D02*
X83860000Y-94714113D01*
X85940000Y-94794113D02*
X87368000Y-94794113D01*
X85940000Y-95195113D02*
X87456000Y-95195113D01*
X83425000Y-98359888D02*
X83425000Y-97859888D01*
X85940000Y-94714113D02*
X87342000Y-94714113D01*
X82632000Y-94314113D02*
X83860000Y-94314113D01*
X87520000Y-95555113D02*
G75*
G03*
X87520000Y-95555113I-2620000J0D01*
G01*
%TO.C,R10*%
X90475000Y-54610000D02*
X91425000Y-54610000D01*
X96215000Y-54610000D02*
X95265000Y-54610000D01*
X91425000Y-55530000D02*
X95265000Y-55530000D01*
X95265000Y-55530000D02*
X95265000Y-53690000D01*
X91425000Y-53690000D02*
X91425000Y-55530000D01*
X95265000Y-53690000D02*
X91425000Y-53690000D01*
%TO.C,R3*%
X66390000Y-62850000D02*
X66390000Y-66690000D01*
X66390000Y-66690000D02*
X68230000Y-66690000D01*
X68230000Y-62850000D02*
X66390000Y-62850000D01*
X67310000Y-61900000D02*
X67310000Y-62850000D01*
X67310000Y-67640000D02*
X67310000Y-66690000D01*
X68230000Y-66690000D02*
X68230000Y-62850000D01*
%TO.C,D3*%
X68780000Y-56695000D02*
X68780000Y-51255000D01*
X65840000Y-55915000D02*
X68780000Y-55915000D01*
X68650000Y-56695000D02*
X68780000Y-56695000D01*
X65840000Y-56695000D02*
X65840000Y-51255000D01*
X68780000Y-51255000D02*
X68650000Y-51255000D01*
X65840000Y-55675000D02*
X68780000Y-55675000D01*
X65840000Y-55795000D02*
X68780000Y-55795000D01*
X65840000Y-51255000D02*
X65970000Y-51255000D01*
X65970000Y-56695000D02*
X65840000Y-56695000D01*
%TO.C,C6*%
X60095000Y-56374113D02*
X60708000Y-56374113D01*
X56475000Y-58335113D02*
X58015000Y-58335113D01*
X58044000Y-55974113D02*
X60066000Y-55974113D01*
X57356000Y-56414113D02*
X58015000Y-56414113D01*
X60095000Y-57014113D02*
X61255000Y-57014113D01*
X60095000Y-58055113D02*
X61616000Y-58055113D01*
X60095000Y-58375113D02*
X61635000Y-58375113D01*
X60095000Y-58015113D02*
X61611000Y-58015113D01*
X60095000Y-57534113D02*
X61497000Y-57534113D01*
X56575000Y-57654113D02*
X58015000Y-57654113D01*
X56787000Y-57134113D02*
X58015000Y-57134113D01*
X57877000Y-56054113D02*
X60233000Y-56054113D01*
X56475000Y-58375113D02*
X58015000Y-58375113D01*
X60095000Y-56934113D02*
X61204000Y-56934113D01*
X56933000Y-56894113D02*
X58015000Y-56894113D01*
X56587000Y-57614113D02*
X58015000Y-57614113D01*
X60095000Y-58295113D02*
X61634000Y-58295113D01*
X57084000Y-56694113D02*
X58015000Y-56694113D01*
X56690000Y-57334113D02*
X58015000Y-57334113D01*
X56494000Y-58055113D02*
X58015000Y-58055113D01*
X60095000Y-56414113D02*
X60754000Y-56414113D01*
X56479000Y-58215113D02*
X58015000Y-58215113D01*
X58537000Y-55814113D02*
X59573000Y-55814113D01*
X60095000Y-57374113D02*
X61437000Y-57374113D01*
X56505000Y-57975113D02*
X58015000Y-57975113D01*
X60095000Y-57454113D02*
X61469000Y-57454113D01*
X57191000Y-56574113D02*
X58015000Y-56574113D01*
X60095000Y-56974113D02*
X61230000Y-56974113D01*
X60095000Y-57494113D02*
X61483000Y-57494113D01*
X58250000Y-55894113D02*
X59860000Y-55894113D01*
X60095000Y-58175113D02*
X61628000Y-58175113D01*
X57612000Y-56214113D02*
X60498000Y-56214113D01*
X56476000Y-58295113D02*
X58015000Y-58295113D01*
X60095000Y-57414113D02*
X61453000Y-57414113D01*
X57270000Y-56494113D02*
X58015000Y-56494113D01*
X57020000Y-56774113D02*
X58015000Y-56774113D01*
X56906000Y-56934113D02*
X58015000Y-56934113D01*
X56512000Y-57935113D02*
X58015000Y-57935113D01*
X56544000Y-57775113D02*
X58015000Y-57775113D01*
X56831000Y-57054113D02*
X58015000Y-57054113D01*
X56765000Y-57174113D02*
X58015000Y-57174113D01*
X56707000Y-57294113D02*
X58015000Y-57294113D01*
X56527000Y-57855113D02*
X58015000Y-57855113D01*
X60095000Y-57094113D02*
X61302000Y-57094113D01*
X57672000Y-56174113D02*
X60438000Y-56174113D01*
X56726000Y-57254113D02*
X58015000Y-57254113D01*
X56990000Y-56814113D02*
X58015000Y-56814113D01*
X57312000Y-56454113D02*
X58015000Y-56454113D01*
X57118000Y-56654113D02*
X58015000Y-56654113D01*
X60095000Y-56454113D02*
X60798000Y-56454113D01*
X60095000Y-57654113D02*
X61535000Y-57654113D01*
X60095000Y-58135113D02*
X61624000Y-58135113D01*
X56745000Y-57214113D02*
X58015000Y-57214113D01*
X57580000Y-61179888D02*
X57580000Y-60679888D01*
X60095000Y-56574113D02*
X60919000Y-56574113D01*
X60095000Y-57294113D02*
X61403000Y-57294113D01*
X60095000Y-56494113D02*
X60840000Y-56494113D01*
X57736000Y-56134113D02*
X60374000Y-56134113D01*
X60095000Y-56854113D02*
X61150000Y-56854113D01*
X60095000Y-58215113D02*
X61631000Y-58215113D01*
X57555000Y-56254113D02*
X60555000Y-56254113D01*
X57402000Y-56374113D02*
X58015000Y-56374113D01*
X56482000Y-58175113D02*
X58015000Y-58175113D01*
X60095000Y-57614113D02*
X61523000Y-57614113D01*
X56486000Y-58135113D02*
X58015000Y-58135113D01*
X56613000Y-57534113D02*
X58015000Y-57534113D01*
X60095000Y-57935113D02*
X61598000Y-57935113D01*
X60095000Y-57174113D02*
X61345000Y-57174113D01*
X60095000Y-57895113D02*
X61591000Y-57895113D01*
X57804000Y-56094113D02*
X60306000Y-56094113D01*
X60095000Y-56534113D02*
X60881000Y-56534113D01*
X56499000Y-58015113D02*
X58015000Y-58015113D01*
X57957000Y-56014113D02*
X60153000Y-56014113D01*
X57450000Y-56334113D02*
X60660000Y-56334113D01*
X60095000Y-58095113D02*
X61620000Y-58095113D01*
X60095000Y-57695113D02*
X61546000Y-57695113D01*
X60095000Y-57054113D02*
X61279000Y-57054113D01*
X60095000Y-56774113D02*
X61090000Y-56774113D01*
X56855000Y-57014113D02*
X58015000Y-57014113D01*
X60095000Y-56654113D02*
X60992000Y-56654113D01*
X56477000Y-58255113D02*
X58015000Y-58255113D01*
X56673000Y-57374113D02*
X58015000Y-57374113D01*
X57051000Y-56734113D02*
X58015000Y-56734113D01*
X56657000Y-57414113D02*
X58015000Y-57414113D01*
X56519000Y-57895113D02*
X58015000Y-57895113D01*
X57330000Y-60929888D02*
X57830000Y-60929888D01*
X60095000Y-57855113D02*
X61583000Y-57855113D01*
X56960000Y-56854113D02*
X58015000Y-56854113D01*
X60095000Y-57214113D02*
X61365000Y-57214113D01*
X58140000Y-55934113D02*
X59970000Y-55934113D01*
X56641000Y-57454113D02*
X58015000Y-57454113D01*
X60095000Y-57975113D02*
X61605000Y-57975113D01*
X56554000Y-57735113D02*
X58015000Y-57735113D01*
X56535000Y-57815113D02*
X58015000Y-57815113D01*
X60095000Y-57334113D02*
X61420000Y-57334113D01*
X60095000Y-56734113D02*
X61059000Y-56734113D01*
X58771000Y-55774113D02*
X59339000Y-55774113D01*
X56808000Y-57094113D02*
X58015000Y-57094113D01*
X60095000Y-56614113D02*
X60956000Y-56614113D01*
X56490000Y-58095113D02*
X58015000Y-58095113D01*
X58378000Y-55854113D02*
X59732000Y-55854113D01*
X60095000Y-57254113D02*
X61384000Y-57254113D01*
X60095000Y-58335113D02*
X61635000Y-58335113D01*
X60095000Y-57574113D02*
X61510000Y-57574113D01*
X56880000Y-56974113D02*
X58015000Y-56974113D01*
X60095000Y-56894113D02*
X61177000Y-56894113D01*
X56600000Y-57574113D02*
X58015000Y-57574113D01*
X57154000Y-56614113D02*
X58015000Y-56614113D01*
X60095000Y-58255113D02*
X61633000Y-58255113D01*
X56564000Y-57695113D02*
X58015000Y-57695113D01*
X60095000Y-57815113D02*
X61575000Y-57815113D01*
X60095000Y-57775113D02*
X61566000Y-57775113D01*
X60095000Y-56694113D02*
X61026000Y-56694113D01*
X60095000Y-56814113D02*
X61120000Y-56814113D01*
X60095000Y-57735113D02*
X61556000Y-57735113D01*
X56627000Y-57494113D02*
X58015000Y-57494113D01*
X60095000Y-57134113D02*
X61323000Y-57134113D01*
X57501000Y-56294113D02*
X60609000Y-56294113D01*
X57229000Y-56534113D02*
X58015000Y-56534113D01*
X61675000Y-58375113D02*
G75*
G03*
X61675000Y-58375113I-2620000J0D01*
G01*
%TO.C,C5*%
X47825000Y-49800000D02*
X47825000Y-54340000D01*
X49965000Y-49800000D02*
X49965000Y-54340000D01*
X47840000Y-54340000D02*
X47825000Y-54340000D01*
X47840000Y-49800000D02*
X47825000Y-49800000D01*
X49965000Y-54340000D02*
X49950000Y-54340000D01*
X49965000Y-49800000D02*
X49950000Y-49800000D01*
%TO.C,C4*%
X52285000Y-54340000D02*
X52270000Y-54340000D01*
X54410000Y-49800000D02*
X54395000Y-49800000D01*
X52285000Y-49800000D02*
X52270000Y-49800000D01*
X54410000Y-49800000D02*
X54410000Y-54340000D01*
X52270000Y-49800000D02*
X52270000Y-54340000D01*
X54410000Y-54340000D02*
X54395000Y-54340000D01*
%TD*%
D14*
%TO.C,J2*%
X57150000Y-78105000D03*
D15*
X62230000Y-78105000D03*
X67310000Y-78105000D03*
X72390000Y-78105000D03*
X77470000Y-78105000D03*
%TD*%
M02*
